<svg width="25" height="25" viewBox="0 0 25 25" fill="none" xmlns="http://www.w3.org/2000/svg">
<mask id="mask0_1336_6426" style="mask-type:alpha" maskUnits="userSpaceOnUse" x="0" y="0" width="25" height="25">
<rect x="0.5" y="0.407227" width="24" height="24" fill="#D9D9D9"/>
</mask>
<g mask="url(#mask0_1336_6426)">
<path d="M5.16675 22.4072C4.71675 22.4072 4.32642 22.242 3.99575 21.9115C3.66525 21.5808 3.5 21.1905 3.5 20.7405V5.74048C3.5 5.29048 3.66525 4.90023 3.99575 4.56973C4.32642 4.23923 4.71675 4.07398 5.16675 4.07398H6.58325V2.40723H8.33325V4.07398H16.6668V2.40723H18.4168V4.07398H19.8333C20.2833 4.07398 20.6736 4.23923 21.0043 4.56973C21.3348 4.90023 21.5 5.29048 21.5 5.74048V20.7405C21.5 21.1905 21.3348 21.5808 21.0043 21.9115C20.6736 22.242 20.2833 22.4072 19.8333 22.4072H5.16675ZM5.16675 20.7405H19.8333V10.2405H5.16675V20.7405ZM5.16675 8.57398H19.8333V5.74048H5.16675V8.57398ZM12.5 14.4072C12.2167 14.4072 11.9792 14.3114 11.7875 14.1197C11.5958 13.9281 11.5 13.6906 11.5 13.4072C11.5 13.1239 11.5958 12.8864 11.7875 12.6947C11.9792 12.5031 12.2167 12.4072 12.5 12.4072C12.7833 12.4072 13.0208 12.5031 13.2125 12.6947C13.4042 12.8864 13.5 13.1239 13.5 13.4072C13.5 13.6906 13.4042 13.9281 13.2125 14.1197C13.0208 14.3114 12.7833 14.4072 12.5 14.4072ZM8.5 14.4072C8.21667 14.4072 7.97917 14.3114 7.7875 14.1197C7.59583 13.9281 7.5 13.6906 7.5 13.4072C7.5 13.1239 7.59583 12.8864 7.7875 12.6947C7.97917 12.5031 8.21667 12.4072 8.5 12.4072C8.78333 12.4072 9.02083 12.5031 9.2125 12.6947C9.40417 12.8864 9.5 13.1239 9.5 13.4072C9.5 13.6906 9.40417 13.9281 9.2125 14.1197C9.02083 14.3114 8.78333 14.4072 8.5 14.4072ZM16.5 14.4072C16.2167 14.4072 15.9792 14.3114 15.7875 14.1197C15.5958 13.9281 15.5 13.6906 15.5 13.4072C15.5 13.1239 15.5958 12.8864 15.7875 12.6947C15.9792 12.5031 16.2167 12.4072 16.5 12.4072C16.7833 12.4072 17.0208 12.5031 17.2125 12.6947C17.4042 12.8864 17.5 13.1239 17.5 13.4072C17.5 13.6906 17.4042 13.9281 17.2125 14.1197C17.0208 14.3114 16.7833 14.4072 16.5 14.4072ZM12.5 18.4072C12.2167 18.4072 11.9792 18.3114 11.7875 18.1197C11.5958 17.9281 11.5 17.6906 11.5 17.4072C11.5 17.1239 11.5958 16.8864 11.7875 16.6947C11.9792 16.5031 12.2167 16.4072 12.5 16.4072C12.7833 16.4072 13.0208 16.5031 13.2125 16.6947C13.4042 16.8864 13.5 17.1239 13.5 17.4072C13.5 17.6906 13.4042 17.9281 13.2125 18.1197C13.0208 18.3114 12.7833 18.4072 12.5 18.4072ZM8.5 18.4072C8.21667 18.4072 7.97917 18.3114 7.7875 18.1197C7.59583 17.9281 7.5 17.6906 7.5 17.4072C7.5 17.1239 7.59583 16.8864 7.7875 16.6947C7.97917 16.5031 8.21667 16.4072 8.5 16.4072C8.78333 16.4072 9.02083 16.5031 9.2125 16.6947C9.40417 16.8864 9.5 17.1239 9.5 17.4072C9.5 17.6906 9.40417 17.9281 9.2125 18.1197C9.02083 18.3114 8.78333 18.4072 8.5 18.4072ZM16.5 18.4072C16.2167 18.4072 15.9792 18.3114 15.7875 18.1197C15.5958 17.9281 15.5 17.6906 15.5 17.4072C15.5 17.1239 15.5958 16.8864 15.7875 16.6947C15.9792 16.5031 16.2167 16.4072 16.5 16.4072C16.7833 16.4072 17.0208 16.5031 17.2125 16.6947C17.4042 16.8864 17.5 17.1239 17.5 17.4072C17.5 17.6906 17.4042 17.9281 17.2125 18.1197C17.0208 18.3114 16.7833 18.4072 16.5 18.4072Z" fill="white"/>
</g>
</svg>
