<svg width="25" height="24" viewBox="0 0 25 24" fill="none" xmlns="http://www.w3.org/2000/svg">
<mask id="mask0_1331_1386" style="mask-type:alpha" maskUnits="userSpaceOnUse" x="0" y="0" width="25" height="24">
<rect x="0.580078" width="24" height="24" fill="#D9D9D9"/>
</mask>
<g mask="url(#mask0_1331_1386)">
<path d="M20.4801 21C18.4967 21 16.4967 20.5375 14.4801 19.6125C12.4634 18.6875 10.6051 17.375 8.90508 15.675C7.20508 13.975 5.89258 12.1167 4.96758 10.1C4.04258 8.08333 3.58008 6.08333 3.58008 4.1C3.58008 3.78567 3.68483 3.52375 3.89433 3.31425C4.10383 3.10475 4.36574 3 4.68008 3H8.36333C8.59666 3 8.7995 3.08192 8.97183 3.24575C9.144 3.40975 9.25783 3.61117 9.31333 3.85L9.97883 7.11075C10.013 7.35908 10.0078 7.57775 9.96333 7.76675C9.91899 7.95558 9.82883 8.11792 9.69283 8.25375L7.22183 10.75C7.62183 11.4445 8.05933 12.0987 8.53433 12.7125C9.00933 13.3263 9.53291 13.9111 10.1051 14.4668C10.6884 15.0611 11.3023 15.6069 11.9468 16.1043C12.5912 16.6014 13.2689 17.0444 13.9801 17.4333L16.3468 15.0168C16.5078 14.8444 16.7017 14.7236 16.9283 14.6543C17.1552 14.5848 17.378 14.5667 17.5968 14.6L20.7301 15.2668C20.9746 15.3334 21.1773 15.4628 21.3383 15.655C21.4995 15.8472 21.5801 16.0622 21.5801 16.3V19.9C21.5801 20.2143 21.4753 20.4762 21.2658 20.6858C21.0563 20.8953 20.7944 21 20.4801 21ZM6.40508 9.2L8.30508 7.28325L7.78008 4.66675H5.25508C5.30508 5.36108 5.41899 6.07775 5.59683 6.81675C5.77449 7.55558 6.04391 8.35 6.40508 9.2ZM15.5383 18.2333C16.2107 18.5389 16.926 18.7862 17.6843 18.975C18.4427 19.1638 19.1857 19.2778 19.9133 19.3168V16.8L17.4133 16.2918L15.5383 18.2333Z" fill="#3555A6"/>
</g>
</svg>
