<svg xmlns="http://www.w3.org/2000/svg" id="Layer_1" viewBox="0 0 1300.4 309.19"><path d="M482.3 80.95h1.28V3.88h-75.55v38.56c27.32 3.9 54.09 16.16 74.27 38.51zM318.85 3.88h-99.79L0 272.58v1.28h133.81v-1.25c-21.59-23.6-24.8-72.24 17.58-124.23L243.3 35.64v119.82c0 87.4 46.94 122.31 125.33 122.31s117.95-52.59 115.03-121.71h-1.28c-14.99 46.91-48.42 76.86-88.75 76.86-44.15 0-74.78-22.2-74.78-79.02V3.88zm671.79 57.51v43.71c-.47 7.7-3.41 11.05-9.71 15.3v1.28h42.74v-1.28c-6.3-4.25-9.24-7.6-9.71-15.3V35.85h-1.28l-31.82 7.66v1.28c6.51 3.44 9.79 8.13 9.79 16.6zm11.58-33.07c7.81 0 14.16-6.35 14.16-14.16S1010.03 0 1002.22 0s-14.16 6.35-14.16 14.16 6.35 14.16 14.16 14.16zm-148 1.1v75.68c-.47 7.7-3.41 11.05-9.71 15.3v1.28h42.74v-1.28c-6.3-4.25-9.24-7.6-9.71-15.3V3.88h-1.28l-31.82 7.66v1.28c6.32 3.46 9.79 8.13 9.79 16.6zm-187.85 92.26v-1.28c-5.5-3.53-9.72-9.7-13.86-19.04l-1.86-4.48-38.83-93h-5.24L571.55 88.1c-8.5 20.43-11.13 26.77-23.09 32.3v1.28h39.78v-1.28c-10.57-3.77-19.08-9.58-9.57-32.6l.26-.63h41.19l4.03 9.77c5.44 13.15 1.08 20.56-9.18 23.46v1.28h51.4zM581.5 80.95l18.03-43.66 18.03 43.66H581.5zm383.53 21.78v-42.3c0-15.66-11.36-24.57-30.25-24.57-32.04 0-39.67 20.74-34.41 32.01l20.79-5.01v-.88c-3.65-10.12.11-20.89 9.8-20.89 6.87 0 10.72 5.89 10.72 14.93v14.64c-28.86 8.12-46.06 16.63-46.06 33.37 0 12.83 9.01 19.34 22.19 19.34 7.58 0 17.27-2.34 24.64-12.78v11.09h32.35v-1.28c-6.92-4.66-9.79-8.22-9.79-17.67zm-23.34.99c-4.03 5.08-9.39 8.87-14.63 8.87-6.21 0-9.48-5.77-9.48-12.68 0-12.62 12.64-19.63 24.1-23.7v27.51zm-196.45 1.38V3.88h-1.28l-31.82 7.66v1.28c6.32 3.46 9.79 8.13 9.79 16.6v11.59c-3.77-2.89-9.96-5.16-17.66-5.16-21.41 0-37.58 17.12-37.58 45.2 0 26.22 12.43 42.58 32.04 42.58 10.81 0 17.83-4.6 23.2-12.25v10.3h33.03v-1.28c-6.3-4.25-9.24-7.6-9.71-15.29zm-23.32 1.25c-3.4 2.65-7.8 4.87-11.69 4.87-12.62 0-19.02-13.29-19.69-28.47-1.34-29.87 8.75-39.87 18.51-39.87 7.38 0 12.87 8 12.87 17.94v45.53zm386.63-1.25V3.88h-1.28l-31.82 7.66v1.28c6.32 3.46 9.79 8.13 9.79 16.6v11.59c-3.77-2.89-9.96-5.16-17.66-5.16-21.41 0-37.58 17.12-37.58 45.2 0 26.22 12.43 42.58 32.04 42.58 10.81 0 17.83-4.6 23.2-12.25v10.3h33.03v-1.28c-6.3-4.25-9.24-7.6-9.71-15.29zm-23.31 1.25c-3.4 2.65-7.8 4.87-11.69 4.87-12.62 0-19.02-13.29-19.69-28.47-1.34-29.87 8.75-39.87 18.51-39.87 7.38 0 12.87 8 12.87 17.94v45.53zM801.8 123.4c25.84 0 35.05-19.97 36.23-29.86h-1.28c-4.55 9.24-14.6 13.66-24.1 13.66-20.74 0-28.09-13.72-29.17-31.68h54.48c1.74-25.5-13.26-39.66-34.01-39.66-25.58 0-42.98 19.93-42.98 42.82s15 44.72 40.84 44.72zm-.56-82.11c9.46 0 14.64 9.43 14.31 28.75h-32.2c.21-16.09 7.48-28.75 17.9-28.75zm363.88 82.11c25.84 0 35.05-19.97 36.23-29.86h-1.28c-4.55 9.24-14.6 13.66-24.1 13.66-20.74 0-28.09-13.72-29.17-31.68h54.48c1.74-25.5-13.26-39.66-34.01-39.66-25.58 0-42.98 19.93-42.98 42.82s15 44.72 40.84 44.72zm-.56-82.11c9.46 0 14.64 9.43 14.31 28.75h-32.2c.21-16.09 7.48-28.75 17.9-28.75zM891.8 189.73h-25.84v1.68c7.33 3.84 8.58 9.88 3.41 23.02h.02l-.02.05-10.92 28.09-10.93-28.14c-5.18-13.15-3.68-18.7 2.12-23.02v-1.68h-41.79v1.68c6.93 3.6 9.49 8.29 15.31 23.07l23.44 59.39h5.36l23.44-59.39c5.55-14.09 7.35-18.74 16.4-23.07v-1.68zm-122.17-23.38c0 7.81 6.35 14.16 14.16 14.16s14.16-6.35 14.16-14.16-6.35-14.16-14.16-14.16-14.16 6.35-14.16 14.16zm368.26 14.16c7.81 0 14.16-6.35 14.16-14.16s-6.35-14.16-14.16-14.16-14.16 6.35-14.16 14.16 6.35 14.16 14.16 14.16zm-342.36 76.78v-69.25h-1.28l-31.82 7.66v1.28c6.51 3.44 9.79 8.13 9.79 16.6v43.7c-.47 7.7-3.41 11.05-9.71 15.3v1.28h42.74v-1.28c-6.3-4.25-9.24-7.6-9.71-15.3zm354.1 0v-69.25h-1.28l-31.82 7.66v1.28c6.51 3.44 9.79 8.13 9.79 16.6v43.71c-.47 7.7-3.41 11.05-9.71 15.3v1.28h42.74v-1.28c-6.3-4.25-9.24-7.6-9.71-15.3zm-402.95 0V214.8c0-14.75-8.86-26.76-26.23-26.76-11.8 0-19.73 6.05-25.27 13.39v-13.39h-1.28l-31.82 7.66v1.28c6.51 3.44 9.79 8.13 9.79 16.6v43.71c-.47 7.7-3.41 11.05-9.71 15.3v1.28h42.74v-1.28c-6.3-4.25-9.24-7.6-9.71-15.3v-47.17c4.02-6.3 9.27-9.9 15.05-9.9 11.85 0 13.14 10.18 13.14 18.3v38.77c-.47 7.71-3.41 11.06-9.71 15.31v1.28h42.74v-1.28c-6.3-4.25-9.24-7.6-9.71-15.3zm318.44-52.5c0-7.88 5.74-11.12 12.47-11.12 7.55 0 16.08 5.16 24.29 19.99h1.94v-21.34c-5-1.57-10.55-2.93-15.99-3.72-3.23-.5-6.42-.71-9.09-.71-16.58 0-30.86 10.5-30.86 25.77 0 28.72 42.18 25.77 42.18 43.33 0 9.19-6.07 12.76-13.95 12.76-9.19 0-19.85-7.19-27.9-24.25h-2.11l1.46 24.78c7.22 3.28 17.06 5.25 27.89 5.25 17.4 0 33.15-9.52 33.15-26.92 0-29.21-43.49-26.75-43.49-43.82zm-438.91-47.44c10.23 3.06 16.22 9.51 16.22 18.96v49.28c0 28.86-14.53 39.25-29.61 39.25-21 0-28.86-15.46-28.86-39.3v-49.23c0-9.45 5.18-15.61 16.22-18.96v-1.28h-53.02v1.28c7.29 4.77 11.22 8.23 11.22 17.68v52.16c0 27.63 12.74 48.35 45.11 48.35 34.26 0 45.64-21.03 45.64-49.14v-51.37c0-9.45 3.96-13.7 11.08-17.68v-1.28H626.2v1.28zm304.63 118.24c25.84 0 35.05-19.97 36.23-29.86h-1.28c-4.55 9.24-14.6 13.66-24.1 13.66-20.74 0-28.09-13.72-29.17-31.68H967c1.74-25.5-13.26-39.66-34.01-39.66-25.58 0-42.98 19.93-42.98 42.82s15 44.72 40.84 44.72zm-.56-82.11c9.46 0 14.64 9.43 14.31 28.75h-32.2c.21-16.09 7.48-28.75 17.9-28.75zm101.41-5.87c-8.48 0-17.46 6.87-22.94 18.75v-18.32h-1.28l-31.82 7.66v1.28c6.51 3.44 9.79 8.13 9.79 16.6v43.7c-.47 7.7-3.41 11.05-9.71 15.3v1.28h46.45v-1.28c-7.7-3.5-12.76-7.62-13.42-15.81v-42.93c7.41-6.62 19.33-8.95 29.05-.02h1.11v-23.43c-1.31-1.64-3.77-2.79-7.21-2.79zm242.87 2.12v1.68c7.33 3.84 8.59 9.88 3.41 23.02h.02l-.02.05-10.92 28.09-10.93-28.14c-5.18-13.15-3.68-18.7 2.12-23.02v-1.68h-62.4v-24.79h-1.28L1163 194.21v1.3h9.53v53.61c0 16.49 9.36 26.41 24.82 26.41s24.08-10.5 27.2-23.11h-1.39c-3.68 5.7-10.06 8.78-15.73 8.74-6.22-.04-11.58-4.12-11.58-15.42v-50.23h16.64c8.44 0 11.96 2.25 15.96 10.55l3.32 8.42 22.91 58.04c-4.65 12.57-12.34 23.65-31.12 14.14h-1.2v21.37c21.12 4.65 26.16-4.09 38.21-34.15l23.44-59.39c5.55-14.09 7.35-18.74 16.4-23.07v-1.68h-25.84z" style="fill:#140f50"/></svg>