<svg xmlns="http://www.w3.org/2000/svg" viewBox="0 0 800 210.7"><path fill="#0602ff" d="M88.563 128.21v-19.023c-7.156-.123-17.194.032-29.014 1.147-30.667 2.89-59.05 8.763-59.546 8.868v60.596s28.61-6.092 59.546-9.01c11.825-1.114 21.858-1.274 29.013-1.144V128.21zm108.725-8.235c-20.225 1.76-33.961 6.562-53.248 10.216v58.853c-.041.01-.085.014-.13.025a247.185 247.185 0 01-22.589 3.208c-21.94 2.099-29.166-1.068-31.244-2.879-1.062-.934-1.516-2.183-1.516-2.208 0 .208-.15 2.01 1.23 3.25 2.16 1.942 6.754 3.753 18.146 3.753 3.76 0 8.217-.22 13.498-.724a245.507 245.507 0 0022.698-3.224c6.748-1.28 12.83-2.7 18.714-4.07 10.987-2.572 21.36-4.994 34.49-6.14 26.8-2.332 43.26 2.65 43.42 2.703v-60.076s-16.209-5.057-43.469-2.687m-67.945-24.083l-9.211 2.09-4.103-8.51-4.119 8.51-9.202-2.09 4.072 8.514-7.373 5.9 9.206 2.12.011 9.44 7.405-5.874 7.393 5.874.005-9.44 9.213-2.12-7.368-5.9 4.071-8.514zm0-52.046l-9.211 2.09-4.103-8.51-4.119 8.51-9.202-2.09 4.072 8.514-7.373 5.9 9.206 2.12.011 9.44 7.405-5.874 7.393 5.875.005-9.442 9.213-2.118-7.368-5.9 4.071-8.515zm0 104.09l-9.211 2.09-4.103-8.51-4.119 8.51-9.202-2.09 4.072 8.515-7.373 5.905 9.206 2.114.011 9.441 7.405-5.875 7.393 5.875.005-9.441 9.213-2.114-7.368-5.905 4.071-8.514zm73.822-63.09l-9.21 2.09-4.11-8.51-4.113 8.51-9.201-2.09 4.066 8.514-7.368 5.9 9.206 2.12.012 9.445 7.397-5.875 7.4 5.875.005-9.446 9.213-2.119-7.375-5.9 4.078-8.514zM59.997 77.437l-9.21 2.09-4.104-8.506-4.119 8.506-9.201-2.09 4.066 8.515-7.368 5.9 9.206 2.123.012 9.442 7.405-5.875 7.393 5.875.004-9.442 9.213-2.123-7.374-5.9 4.077-8.515zm641.167-41.743c18.962 0 34.162 13.492 34.162 32.461 0 19.095-15.2 32.468-34.044 32.468-18.97 0-34.169-13.373-34.169-32.468 0-18.97 15.2-32.461 34.05-32.461m.12 51.796c9.97 0 18.354-7.784 18.354-19.335 0-11.43-8.384-19.335-18.355-19.335-10.092 0-18.485 7.905-18.485 19.335 0 11.551 8.393 19.335 18.485 19.335m-120.718 6.562c0-2.432.244-4.38.244-4.38h-.244c.125 0-4.743 10.946-18.851 10.946-11.065 0-21.031-6.927-21.031-19.33 0-19.698 26.625-21.036 36.726-21.036h2.057v-.854c0-8.151-5.103-10.941-11.914-10.941-3.28 0-6.742 0-9.804-.005-5.864-1.192-10.28-6.375-10.28-12.597l-.004-.032c3.409-.05 10.96-.134 21.552-.134 16.293 0 25.776 8.998 25.776 24.682v38.793h-14.228V94.05zm-.968-23.226h-2.677c-7.904 0-20.677 1.1-20.677 9.73 0 4.139 3.046 8.023 9.362 8.023 8.153 0 13.992-8.754 13.992-16.294v-1.459zm-300.034-6.562h18.09c4.78-2.603 8.024-7.676 8.024-13.496h-26.114V26.325h37.621V12.827h-53.305v86.337h15.684v-34.9zm381.236-27.117c-8.477 0-15.355 6.873-15.355 15.358l-.08.57v46.09h15.435V37.148zm-23.206 62.256V85.911s-1.09.24-2.79.24c-4.261 0-12.285-1.459-12.285-11.674V50.399h14.1V38.12h-14.1V17.4c-7.498 0-13.727 5.374-15.085 12.466v8.254h-8.384V50.4h8.03v26.024c0 20.787 17.14 23.35 25.776 23.35 2.909 0 4.738-.37 4.738-.37M419.55 90.048s-5.229 10.576-19.46 10.576c-16.783 0-27.484-13.26-27.484-32.469 0-19.697 11.681-32.465 28.093-32.465 13.622 0 17.876 7.904 17.876 7.904h.24s-.119-1.577-.119-3.532V27.526l.09-.573c0-8.478 6.867-15.358 15.354-15.358v87.57h-14.59v-5.107c0-2.308.24-4.01.24-4.01h-.24m-31.38-21.892c0 11.789 6.328 19.454 15.445 19.454 8.026 0 15.565-5.836 15.565-19.572 0-9.613-5.103-19.095-15.44-19.095-8.51 0-15.57 6.93-15.57 19.213m265.612-35.558c4.2 0 7.596-3.4 7.596-7.597s-3.395-7.603-7.596-7.603c-4.197 0-7.604 3.407-7.604 7.603s3.407 7.597 7.604 7.597m-286.443 55.75c-3.046 3.343-12.408 12.275-25.61 12.275-20.556 0-33.324-14.83-33.324-32.468 0-19.088 13.008-32.461 31.498-32.461 17.87 0 27.472 13.007 27.472 29.427 0 1.822-.354 5.957-.354 5.957h-42.807c.973 10.82 9.362 16.416 18.604 16.416 8.426 0 15.351-4.852 17.299-6.363l7.222 7.217m-27.806-40.74c-7.905 0-13.367 4.863-14.835 12.889h27.119c-.24-8.396-5.473-12.89-12.284-12.89m159.603 40.737c-3.042 3.342-12.403 12.275-25.61 12.275-20.551 0-33.32-14.83-33.32-32.469 0-19.088 13.013-32.46 31.487-32.46 17.878 0 27.484 13.007 27.484 29.426 0 1.822-.363 5.957-.363 5.957h-42.805c.975 10.825 9.364 16.417 18.606 16.417 8.419 0 15.351-4.852 17.303-6.357l7.218 7.21zm-27.802-40.74c-7.909 0-13.382 4.867-14.84 12.893h27.12c-.247-8.4-5.473-12.894-12.28-12.894m68.313 3.166a26.6 26.6 0 013.65.245v-15.2s-1.337-.244-2.796-.244c-9.483 0-16.903 7.055-19.698 15.934h-.24s.24-2.073.24-4.386v-9.97H505.97v62.018h15.446V73.869c0-3.646.363-7.05 1.331-10.087 2.918-9.243 10.337-13.013 16.899-13.013m238.838-15.082c-12.529 0-19.34 7.66-22.016 12.89h-.24s.24-1.944.24-4.25v-7.18h-14.83v62.016h15.44V70.71c0-2.92.249-5.718 1.091-8.268 2.318-7.42 8.396-12.65 16.664-12.65 7.9 0 9.847 5.108 9.847 12.65v36.72H800V59.28c0-16.417-7.78-23.593-21.515-23.593M312.81 164.362c0 13.679-8.877 21.942-22.355 21.942-13.47 0-22.248-8.263-22.248-21.739v-46.75h-4.391v46.958c0 15.716 11.023 25.719 26.744 25.719s26.641-10.003 26.641-25.72v-46.957h-4.39v46.547zm40.625-27.357c-12.756 0-19.9 9.597-21.64 14.394h-.204s.407-1.838.407-4.187v-8.983h-4.286v51.036h4.286v-24.906c0-2.448.208-4.795.817-6.941 2.55-9.494 11.024-16.225 20.62-16.225 11.43 0 12.554 8.368 12.554 17.25v30.822h4.286v-32.352c0-12.049-3.572-19.908-16.84-19.908m28.684 52.258h4.285v-51.035h-4.285v51.035zm38.07-11.02c-.915 2.453-1.732 5.515-1.732 5.515h-.21s-.811-3.062-1.733-5.515l-15.72-40.012h-4.595l20.111 51.036h4.083l20.006-51.036h-4.489l-15.72 40.012zm47.258-41.236c13.883 0 20.824 10.919 20.824 23.271 0 1.126-.203 2.761-.203 2.761h-40.935c0 14.798 10.003 23.271 21.844 23.271 9.802 0 15.825-6.432 15.825-6.432l2.35 3.573s-7.151 7.04-18.175 7.04c-14.392 0-26.33-10.41-26.33-26.642 0-17.25 11.735-26.842 24.8-26.842m16.33 22.047c-.504-12.455-7.957-18.07-16.435-18.07-9.389 0-18.063 6.124-19.9 18.07h36.335zm18.172-6.94h-.204s.407-1.839.407-4.186v-9.697h-4.286v51.036h4.286v-22.048c0-3.368.406-7.144 1.53-10.715 2.244-7.558 7.25-14.289 15.21-14.289 1.12 0 2.35.203 2.35.203v-4.285s-1.427-.309-2.963-.309c-8.06 0-13.78 6.432-16.33 14.29m31.132-1.635c0-6.635 5.717-9.29 11.532-9.29 8.677 0 12.864 4.802 12.864 4.802l2.55-3.473s-4.696-5.51-15.105-5.51c-8.675 0-16.33 4.697-16.33 13.78 0 16.636 28.066 12.96 28.066 25.926 0 6.332-5.508 9.59-11.736 9.59-10.109 0-15.819-6.425-15.819-6.425l-2.76 3.265s6.123 7.348 18.474 7.348c9.395 0 16.33-5.613 16.33-13.778 0-16.944-28.066-12.966-28.066-26.235m39.6 38.77h4.286v-51.024h-4.286v51.025zm25.723-18.764v-28.073h13.374v-3.873h-13.374v-14.496h-4.285v14.496h-6.738v3.873h6.738v28.381c0 16.944 10.918 18.88 16.225 18.88 1.532 0 2.557-.203 2.557-.203v-3.977s-.922.203-2.347.203c-4.083 0-12.15-1.735-12.15-15.211m45.524 8.474c-1.02 2.447-1.733 4.795-1.733 4.795h-.21s-.81-2.348-1.831-4.795l-16.846-40.725h-4.594l21.131 50.728-3.676 8.473c-2.041 4.795-5.103 9.186-10.003 9.186-3.468 0-6.327-2.448-6.327-2.448l-1.936 3.671s3.363 2.857 8.263 2.857c6.43 0 10.722-4.18 12.967-9.492l26.233-62.975h-4.599l-16.84 40.724zm-71.247-53.696h4.286v-7.446h-4.286v7.446zm-190.562 0h4.285v-7.446h-4.285v7.446zM197.227 10.016c-13.21 1.15-23.63 3.583-34.66 6.16-5.868 1.375-11.94 2.793-18.657 4.067a248.188 248.188 0 01-22.588 3.213c-2.562.24-4.911.417-7.083.531V5.568c-.006-.496-.176-.931-.573-1.326C111.23 1.415 101.43.675 100.284.598c-.167-.012-17.022-1.667-40.834.582C28.826 4.07.29 10.1 0 10.162v59.315c.5-.105 28.884-5.973 59.548-8.861 11.816-1.116 21.86-1.272 29.016-1.146V19.446c0 .345.41 7.286 26.952 5.66l.41-.025c1.72-.11 3.537-.25 5.478-.438.224-.02.427-.046.646-.066 3.293-.324 6.542-.715 9.775-1.158.443-.061.911-.118 1.354-.182a246.68 246.68 0 0010.065-1.672c.26-.045.536-.093.797-.14v59.926c19.287-3.651 33.025-8.458 53.248-10.218 27.26-2.368 43.472 2.687 43.472 2.687V13.875l.015-1.197c-.162-.047-16.46-5.02-43.549-2.662"/></svg>