<svg width="27" height="26" viewBox="0 0 27 26" fill="none" xmlns="http://www.w3.org/2000/svg">
<path d="M3.08437 25.4331C1.14968 22.275 0.182339 19.0884 0.182339 15.8734C0.182339 13.0283 0.893621 10.3112 2.31619 7.72213C3.7672 5.10462 5.85837 2.71471 8.58969 0.552411L11.8758 2.55822C12.1603 2.72893 12.3595 2.94232 12.4733 3.19838C12.5871 3.42599 12.644 3.6536 12.644 3.88121C12.644 4.13727 12.5871 4.37911 12.4733 4.60672C12.3595 4.83433 12.2315 5.03349 12.0892 5.20419C11.7193 5.63096 11.321 6.12886 10.8942 6.69789C10.4959 7.26692 10.1261 7.89284 9.78465 8.57567C9.44323 9.23005 9.15872 9.95556 8.93111 10.7522C8.7035 11.5488 8.58969 12.4024 8.58969 13.3128C8.58969 14.2802 8.74618 15.3186 9.05914 16.4282C9.3721 17.5094 9.89845 18.6474 10.6382 19.8424C10.8942 20.2407 11.0223 20.639 11.0223 21.0373C11.0223 21.9478 10.5102 22.5879 9.48591 22.9578L3.08437 25.4331ZM17.2531 25.4331C15.3184 22.275 14.3511 19.0884 14.3511 15.8734C14.3511 13.0283 15.0624 10.3112 16.4849 7.72213C17.9359 5.10462 20.0271 2.71471 22.7584 0.552411L26.0446 2.55822C26.3291 2.72893 26.5282 2.94232 26.642 3.19838C26.7558 3.42599 26.8127 3.6536 26.8127 3.88121C26.8127 4.13727 26.7558 4.37911 26.642 4.60672C26.5282 4.83433 26.4002 5.03349 26.2579 5.20419C25.8881 5.63096 25.4898 6.12886 25.063 6.69789C24.6647 7.26692 24.2948 7.89284 23.9534 8.57567C23.612 9.23005 23.3275 9.95556 23.0998 10.7522C22.8722 11.5488 22.7584 12.4024 22.7584 13.3128C22.7584 14.2802 22.9149 15.3186 23.2279 16.4282C23.5408 17.5094 24.0672 18.6474 24.8069 19.8424C25.063 20.2407 25.191 20.639 25.191 21.0373C25.191 21.9478 24.6789 22.5879 23.6546 22.9578L17.2531 25.4331Z" fill="#3555A6"/>
</svg>
