<svg xmlns="http://www.w3.org/2000/svg" data-name="Layer 1" viewBox="0 0 464.7 165.61"><path d="M166.21 27.33h27.24v5.76h-10.43v22.65h-6.37V33.09h-10.43v-5.76zm43.8 28.82c-9.54 0-16.03-5.76-16.03-14.53s6.5-14.7 16.03-14.7S226 32.72 226 41.62s-6.45 14.53-15.99 14.53zm0-5.88c6.74 0 9.3-2.44 9.3-8.73s-2.56-8.73-9.3-8.73-9.3 2.44-9.3 8.73 2.56 8.73 9.3 8.73zm47.47 5.48h-7.75l-5.52-10.03h-7.51v10.03h-6.46V27.33h16.36c6.53 0 10.19 3.25 10.19 9.21 0 4.99-2.56 8.04-7.18 8.89l3 3.29 4.87 7.02zm-11.69-22.86h-9.09v7.47h9.09c2.88 0 4.26-1.18 4.26-3.73s-1.38-3.73-4.26-3.73zm42.73 22.86h-7.75l-5.52-10.03h-7.51v10.03h-6.46V27.33h16.36c6.54 0 10.19 3.25 10.19 9.21 0 4.99-2.56 8.04-7.18 8.89l3 3.29 4.87 7.02zm-11.69-22.86h-9.09v7.47h9.09c2.88 0 4.26-1.18 4.26-3.73s-1.38-3.73-4.26-3.73zm39.81-5.56v5.76H298.7v5.64h17.25v5.56H298.7v5.64h17.94v5.8h-24.32V27.31h24.32zm27.64 19.89V27.33h6.45v28.42h-7.79l-13.11-17.41-2.07-3.82v21.23h-6.41V27.33h8.08l12.58 16.08 2.27 3.82zm24.12 8.93c-7.47 0-12.83-2.72-13.8-9.09l6.41-1.62c.57 4.22 2.11 5.52 7.51 5.52 4.34 0 6.09-.93 6.09-3.17 0-1.75-1.46-2.35-4.95-2.84l-5.93-.81c-5.24-.69-8.28-3.49-8.28-8.65s4.26-8.57 12.14-8.57c7.23 0 12.3 2.31 12.99 8.57l-6.01 1.7c-.36-3.78-1.7-4.99-6.98-4.99-4.06 0-5.68.89-5.68 3.09s2.27 2.76 5.24 3.17l5.32.65c5.85.69 8.65 3.82 8.65 7.83 0 5.52-4.22 9.21-12.7 9.21zm-185.96 41c-9.05 0-14.37-4.22-14.37-12.34V68.33h6.5v16.93c0 4.71 2.07 6.01 7.88 6.01s7.88-1.3 7.88-6.01V68.33h6.49v16.48c0 8.12-5.36 12.34-14.37 12.34zm42.55-8.93V68.33h6.46v28.42h-7.79l-13.11-17.41-2.07-3.82v21.23h-6.41V68.33h8.08l12.58 16.08 2.27 3.82zm18.69 8.53h-6.66V68.33h6.66v28.42zm21.46-12.63L272 68.33h7.06l-12.3 28.42h-8.16l-12.42-28.42h7.1l6.78 15.79 2.56 7.23 2.52-7.23zm40.87-15.79v5.76h-17.94v5.64h17.25v5.56h-17.25v5.64h17.94v5.8h-24.32V68.31h24.32zm31.94 28.42h-7.75l-5.52-10.03h-7.51v10.03h-6.45V68.33h16.36c6.54 0 10.19 3.25 10.19 9.21 0 4.99-2.56 8.04-7.19 8.89l3 3.29 4.87 7.02zm-11.69-22.86h-9.09v7.47h9.09c2.88 0 4.26-1.18 4.26-3.73s-1.38-3.73-4.26-3.73zm27.36 23.26c-7.47 0-12.83-2.72-13.8-9.09l6.41-1.62c.57 4.22 2.11 5.52 7.51 5.52 4.34 0 6.09-.93 6.09-3.17 0-1.75-1.46-2.35-4.95-2.84l-5.93-.81c-5.24-.69-8.28-3.49-8.28-8.65s4.26-8.57 12.14-8.57c7.23 0 12.3 2.31 12.99 8.57l-6.01 1.7c-.37-3.78-1.71-4.99-6.98-4.99-4.06 0-5.68.89-5.68 3.09s2.27 2.76 5.24 3.17l5.32.65c5.85.69 8.65 3.82 8.65 7.83 0 5.52-4.22 9.21-12.71 9.21zm23.49-.4h-6.66V68.33h6.66v28.42zm3.37-28.42h27.24v5.76h-10.43v22.65h-6.37V74.09h-10.43v-5.76zm42.95 12.3l7.75-12.3h7.35l-11.89 18.39v10.03h-6.37v-9.9L408.3 68.34h7.43l7.71 12.3zm-224.75 57.12h-6.74l-2.6-6.13h-14.57l-2.6 6.13h-6.78l12.22-28.42h8.97l12.1 28.42zm-18.63-18.47l-2.84 6.66h9.7l-2.84-6.66-1.99-5.03-2.03 5.03zM214 138.15c-9.05 0-14.37-4.22-14.37-12.34v-16.48h6.5v16.93c0 4.71 2.07 6.01 7.88 6.01s7.88-1.3 7.88-6.01v-16.93h6.49v16.48c0 8.12-5.36 12.34-14.37 12.34zm31.71 0c-7.47 0-12.83-2.72-13.8-9.09l6.41-1.62c.57 4.22 2.11 5.52 7.51 5.52 4.34 0 6.09-.93 6.09-3.17 0-1.74-1.46-2.35-4.95-2.84l-5.93-.81c-5.24-.69-8.28-3.49-8.28-8.65s4.26-8.57 12.14-8.57c7.23 0 12.3 2.31 12.99 8.57l-6.01 1.71c-.36-3.78-1.71-4.99-6.98-4.99-4.06 0-5.68.89-5.68 3.09s2.27 2.76 5.24 3.17l5.32.65c5.85.69 8.65 3.82 8.65 7.83 0 5.52-4.22 9.22-12.71 9.22zm13.7-28.82h27.24v5.76h-10.43v22.65h-6.37v-22.65h-10.43v-5.76zm57.85 28.42h-7.75l-5.52-10.03h-7.51v10.03h-6.45v-28.42h16.36c6.54 0 10.19 3.25 10.19 9.21 0 4.99-2.56 8.04-7.18 8.89l3 3.29 4.87 7.02zm-11.69-22.86h-9.09v7.47h9.09c2.88 0 4.26-1.18 4.26-3.73s-1.38-3.73-4.26-3.73zm45.74 22.86h-6.74l-2.6-6.13H327.4l-2.6 6.13h-6.78l12.22-28.42h8.97l12.1 28.42zm-18.64-18.47l-2.84 6.66h9.7l-2.84-6.66-1.99-5.03-2.03 5.03zm27.75-9.95v22.45h17.7v5.97h-24.19v-28.42h6.49zm27.79 28.42h-6.66v-28.42h6.66v28.42zm35.84 0h-6.74l-2.6-6.13h-14.57l-2.6 6.13h-6.78l12.22-28.42h8.97l12.1 28.42zm-18.63-18.47l-2.84 6.66h9.7l-2.84-6.66-1.99-5.03-2.03 5.03z" fill="#ea6025"/><path d="M139.75 26.02H26.17V139.6h113.58V26.02zm-17.06 15.54H43.23v12.52h21.38v69.96h12.52V54.09h11.66v69.96h12.52V54.09h21.38V41.57z" fill-rule="evenodd" fill="#ea6025"/></svg>