<svg xmlns="http://www.w3.org/2000/svg" viewBox="0 0 651.1 183.8"><path d="M5.6 30.7H11v26.9c0 9.2 5.4 12.9 12.4 12.9S35.7 66.6 35.7 58V30.7H41v27c0 11.4-8 17.4-17.7 17.4S5.6 70.6 5.6 58.6V30.7zm54.2 0h5.4l25.5 35.7V30.7H96v43.7h-5.4L65.1 39.2v35.1h-5.2V30.7zm55.5 0h5.4v43.7h-5.4V30.7zm19.2 0h5.7L153 66.8l12.8-36.1h5.5l-15.8 44h-5.2l-15.8-44zm50.6 0h25.7v4.5h-20.4v14.6h16.1v4.5h-16.1v15.5h20.3v4.5H185V30.7zm42 0h11.5c11.3 0 15.6 5.8 15.6 11.9 0 6.4-4.7 10.3-9 12.2l13.2 19.5H252L239.5 56h-7v18.4h-5.4V30.7zm12.3 20.7c4.2 0 9-2.9 9-8.3 0-4.1-2.8-7.9-10.8-7.9h-5.1v16.2h6.9zm31.3 15c3.3 2.4 7.3 3.8 11.4 3.9 4.7 0 8.7-2.2 8.7-6.4 0-9.9-20.8-9.4-20.8-22.7 0-6.3 5.1-11.4 14.2-11.4 3.8.1 7.5.7 11.1 2l-1.4 5c-3.1-1.4-6.5-2.1-10-2.2-4.8 0-8.6 2.1-8.6 6 0 10.2 20.8 9 20.8 22.9 0 7.6-6.5 11.5-14.3 11.5-4.5 0-8.9-1.2-12.7-3.6l1.6-5zm41.7-35.7h5.4v43.7h-5.4V30.7zm34.9 4.5h-15.4v-4.5h36.5v4.5h-15.7v39.1h-5.4V35.2zm44.9 20.2l-15.6-24.7h6.4l12 19.4 12.2-19.4h6l-15.6 24.6v19.1h-5.4v-19zM18.5 104.2H-.1v-9.1h48v9.1H29.3v47.3H18.5v-47.3zm56.6-9.5h10.4l21.2 56.9H95.6L91 138.9H69.2l-4.6 12.7H53.8l21.3-56.9zm-2.6 35.1h15.3l-7.6-21.3-7.7 21.3zm49.5 8.4s6.1 5.1 14 4.9c4.7 0 8.9-2.1 8.9-6 0-10.2-25.1-9.8-25.1-26.9 0-8.6 7.1-16.2 19.5-16.2 5.2.1 10.4 1 15.3 2.5l-1.8 9.8c-4.2-1.8-8.8-2.7-13.4-2.9-4.8 0-8.6 2-8.6 5.6 0 10.2 25 9.3 25 27.1 0 10.2-8.8 16.3-19.6 16.3-6.1 0-12-1.6-17.3-4.7l3.1-9.5zm53.8-43.1h15.6l13.6 39.2 13.6-39.2H234l2.1 56.4h-10.6l-1.6-44.2-15.6 44.2h-7.1l-15.5-44.1-1.4 44.1h-10.5l2-56.4zm96.4-.4h10.4l21.2 56.9h-11.1l-4.6-12.7h-21.8l-4.6 12.7H251l21.2-56.9zm-2.6 35.1h15.3l-7.6-21.3-7.7 21.3zm50.1-34.7h11l27.5 39.8V95.1h10.7v56.4h-11.1L330.4 112v39.5h-10.7V95.1zm71.7 0h10.9v56.4h-10.9V95.1zm48.1-.4h10.4l21.2 56.9H460l-4.6-12.7h-21.8l-4.6 12.7h-10.8l21.3-56.9zm-2.7 35.1h15.3l-7.6-21.3-7.7 21.3zm1-86.8c6.1 0 9.1 4.8 9.1 9.7 0 6.2-4.9 15.3-13.4 15.3-6.1 0-9-4.8-9-10.1-.1-7.3 5.5-14.9 13.3-14.9zm-4 21.5c5.5 0 8.9-6.3 8.9-11.7 0-3.6-1.5-6.4-5.1-6.4-4.8 0-8.9 4.9-8.9 11.4-.1 3.9 1.5 6.7 5.1 6.7zm17.9-19.7l3.7-1.4.2-1.2c.8-6.2 3.4-13.3 11.1-13.3 2-.1 4.1.4 5.8 1.4l-1.8 3.2c-1.2-.7-2.6-1.1-4-1.1-5.3 0-6.5 5.5-7.4 11.1h6.4l-.7 3.3h-6.1c-1.6 12.8-3.3 30-12.8 32.8l-1.6-2.8c5.9-2 8.4-12.4 9.6-22l1-8h-3.2l-.2-2z"/><path fill="#E42313" d="M540 42c-.8 0-2.4.1-3.4.2-.7 0-1.3-.1-1.9-.4-.2-.1-.5.1-.5.3v.1l-.1 2.3c0 .5.4.9.9 1 1.8.4 3.9.2 6.7-2.8.5-.6-1.1-.7-1.7-.7" class="st0"/><path fill="#E42313" d="M651.1 56c.1-.1.1-.2 0-.2-4.8-5.1-26.3-2.5-34.7-1.6-10.3 1.2-18.8 2.3-21.4 2.4-2.8.1-8.5.5-11.8-1-3.7-1.8-4.8-3.2-5.1-5.1-.8-5.4 3.9-5.6 5.4-5.6s3.6 0 3.5 2.1c-.1 1.4-1.3 2.1-2.5 2.7-.1 0-.1.1 0 .2.7.6 3.4 2.7 6.4 2.5 3.5-.3 5.9-1 7.5-6.8 0-.1.1-.1.1-.1 3.9 1.5 7.8 2.8 11.8 3.9 3.2.7 8 .8 11.4-1.1s8.1-4.8 13.5-4.6c4.7.2 10.2.3 13.4 2.2h.2v-.1c-.7-2.2-5-14.2-19.4-10.8-3.6 1-4.1 1.9-7 2.4-5.2.9-10.5.6-15.6-.7-.1 0-.1-.1-.1-.2 0 0 0-.1.1-.1 1.9-1 11.5-5.9 22.1-4.1.1 0 .2 0 .2-.1v-.1c-1-1.4-5.8-7.2-13.7-7-9.1.3-11.2 2.3-16.9 5.4-5.3 2.8-7.5 4.6-16.5 4.1-5.6-.3-11.6 4.1-12.8 7.6-5.3 15.3 6.2 21.4 16.1 23 9.3 1.5 41.5-5.2 49.2-1.7 3.5 1.6 5.6 4.9 5.4 7.7-.1 1.3-1.6 3.6-6 4.6-7.5 1.3-15.3 1.1-22.7-.6-.2-.1-7.9-4.4-13.8-4.8-4.5-.3-15.8 2.2-19.4 2.2-2.5.1-7.3.3-9.9.5.1-11.6-6.2-21.1-6.5-21.6-.4-.6-1.1-.8-1.8-.5 0 0-.1 0-.1.1 0 0-.8.4-2.3 1.1 1.7-3.3 1.3-7.5-.3-9.2-.1-.1-.1-.3 0-.4.8-1 1.3-2.3 1.4-3.6.1-2.7-.5-6.1-6.8-9.6-.4-.2-.8-.1-1 .3 0 0 0 .1-.1.1-.5 1.3-1.7 3.8-2.8 3.9-2.4.2-9.6 1.8-11.5 2.7-2 1-3.8 2.4-5.2 4.2-.9 1.6-2.5 2.7-4.3 3-1.9.4-2.6.1-3.2.6-.6.6-.9 1.4-.7 2.3.7 1.9 1.5 3.8 2.5 5.5.6 1.2 1.5 2.2 2.6 3h-2.4c-.7 0-2.1-.1-2.2-.1-.3 0-.6.1-.7.4-.1.3-.1.6.1.9.7.9 1.6 1.7 4.4 1.7h.3l2.3.1c-.3.4-.7.9-.9 1.1-1.2 1.2-1.5 3.1-.7 4.6.5 1.1 1.3 2.1 2.3 2.8 1.7-1.2 5.2-2.8 6.7-1.7l-.9 1c-3 3.3-7 7.4-9.2 12.6-2.7-1-9.5-3.7-12.6-6.7-1.2-1.5-1.7-3.5-1.2-5.4.8-2 .6-4.2-.3-6.1-1.1-2.5-4.5-5-4.5-5 .4-3 1-7 1.2-8.2 2.8.3 5.5-.4 6.4-1.8.9-1.4 1.2-4 1.6-4.6.5-.6 1.4-.4 2-.4 1.6 0 3.1-.6 4.3-1.6 1.7-1.5 2.9-3.7 4.3-3.9 1.6-.1 3-.8 4.2-1.8 1.2-1 3.8-4.2 8.6-4.1 1.3 0 2.1-1.3-.4-1.9-3-.6-6.1-.3-9 .7-2.7 1-3.8.1-4.9-.2-1.8-.5-3.5-.4-6.1.6-2.1.8-6 1.4-8.3.7-3.2-1.2-6.7-1.4-10-.5-3.6.9-6.1 2.9-7.3 5.9-.7 1.8-.7 3.7 0 5.5.3.6.6 1.1.9 1.6-.1 2.4-.4 10.2-.5 11.1-.4.6-.6 1.3-.8 2.1-.1.4-.1.8-.1 1.1h-.4c-.9.1-1.8.5-2.4 1.2l-.3.3-.2.3c-.1.2-.3.4-.4.6l-.3.6c-.1.3-.2.5-.2.8-.1.6-.1 1.1 0 1.7.1.5.3 1 .6 1.4.4.6.9 1.1 1.4 1.6-.2.2-.4.5-.6.7-.4.7-.7 1.4-.8 2.2 0 .8.2 1.7.6 2.4.4.6.8 1 1.3 1.4.5.4.9.7 1.4 1-1.1 32.3-1.2 33.6 2.1 34.6h.4c3.9 0 5-8.7 7.2-23.8.3-2.2.6-4.1.8-5.8 2.8 5.2 9.1 15.9 18.2 24.3.4.3.9.3 1.2-.1.1-.1.2-.3.2-.4 1-4.2 1.8-5.7 2.2-6.4.7 1.5 1.6 3 2.5 4.4 1.4 1.9 2.9 3.6 4.7 5.2-2.8 2.7-9.7 8.7-16.8 10.9-.1 0-.1 0-.2-.1-.7-1.7-1.7-3.3-3-4.7-1.7-1.6-3.2-3.3-9.7-1.9-1.3.3-2.5.7-3.7 1.2-.4.2-.6.7-.4 1.1.1.3.4.4.7.5.6 0 1.3.1 1.9.2.1 0 .1.1.1.1-.1 1 0 1.9.5 2.8v.2c-.8.5-5.3 4.1-4.5 11.6 0 .3.2.4.5.4.2 0 .4-.1.4-.3.2-.7.5-1.4.8-2.1.4.7 2.1 3.4 4.7 3.8.1 0 .1.1.1.2-.3 3.3.7 6.5 2.7 9.1.2.3.6.3.9.1.2-.1.2-.3.2-.6-.1-.5-.1-1.1 0-1.6 0-.1.1-.1.1-.1h.1c1.1.7 2.4.6 3.4-.2 2-1.4 3.6-3.3 4.9-5.4 0-.1.1-.1.2 0 1.2 1.5 3.1 1.7 5.2 1.7 3.6 0 6.6-1.9 6.6-5.5v-.3c8.1.8 13.1-1.1 19.4-5.1 5.8-3.7 8.7-6.2 8.3-9.5-.2-1.5-.8-2.9-1.9-4 7-.1 13.4-3.9 17-9.9.1-.1.3 0 .2.1-.6 2.8-.7 8 .8 10.8 2.2 4.1 7.6 10.4 8.4 13s.7 9.2-2.2 12.8c-2.9 3.6-3.6 4.1-5.8 5.5h-.1c-.6-.5-4.4-3.9-8.3-4.5s-16.2-3.4-16.9 10c-.1.3.2.7.5.7.2 0 .5-.1.6-.2.7-1 1.6-1.9 2.7-2.6h.1c.8.4 1.6.8 2.4 1 .1 0 .1.1.1.1v.1c-2.1 2.7-4 7-.1 11.8.2.2.5.3.8.1.1-.1.2-.3.2-.5-.1-.8-.1-1.6 0-2.5 0-.1.1-.1.2-.1 0 0 .1 0 .1.1 1.4 2.1 4.7 2.8 7.7 1.4.1 0 .1 0 .2.1.1.8.9 4.3 6.2 8.2.3.2.7.2.9-.1.2-.2.2-.5.1-.7-.4-.9-.6-1.8-.6-2.7 0-.1.1-.1.1-.1 2.7 0 5.1-1.5 6.3-3.9.8-1.7 1.4-3.6 1.8-5.4 0 0 0-.1.1-.1l4.6-3h.2c.4.9.7 1.8 1.5 2.1.1 0 .1.1.1.2-.3 1.1-.6 2.2-1 3.2-.1.2 0 .5.2.6.2.1.4.1.5 0 3-2.2 9.1-7.8 6.3-13.9 9.8-7.7 15.9-17.3 16.9-23 .1-.7-.3-1.4-1.1-1.6h-.2c-6.3-.2-9.7-1.9-9.2-7.6 0-.1.1-.1.1-.1 1.6.4 15.7 4.2 25.2 1.5.6-.2 1.2.1 1.5.7 1.5 2.8 2.8 5.8 3.8 8.9.8 3.3.2 5 .1 5.1-.5.8-1.6 1.5-4.3 3.2-6.7 4.4-6.1 9.9.1 16.2.2.2.4.1.6 0 .1-.1.1-.3.1-.4-.4-1.2-.7-2.5-.8-3.8 0-.1.1-.1.1-.1.7.1 1.4 0 2.1-.4.1 0 .1 0 .2.1.1.8.8 4.1 5.5 6.3.2.1.3 0 .4-.2v-.2c-.4-1.1-.8-2.2-1-3.4 0-.1 0-.1.1-.2 1 0 4.8 0 5.7-5 0-.1.1-.1.1-.1.9.3 6 2 9.1-2.1.1-.1.1-.3 0-.4-.1 0-.1-.1-.2-.1-1 .3-2 .4-3 .2-.1 0-.1-.1-.1-.2.5-.8 2.8-5.6-3-10.8v-.2c3.8-11.8 3-24.8-1.2-32.6-.3-.6-1-.9-1.7-.7-7.3 2.6-19.4 3.8-20.8-2.8 0-.1 0-.2.1-.2 3.4.6 6.8.7 10.2.4 3.9-.3 7.8-1 11.5-2.1 4.3-1.3 7.8-3 9.5-7.4 1.4-4.8.5-10-2.4-14.1-.1-.1-.1-.1 0-.2l5.9-4.5zM499.3 43.7c2.2 1.3 4.6 2.2 7.1 2.7 0 0-.8 6.7-.9 6.7-.3-.2-.7-.4-1-.6-.9-.5-1.8-.9-2.8-1.3-.5-.2-1.1-.4-1.7-.5-.3-.1-.7-.1-1-.1l.3-6.9zm-1.1-8.2c.8-3.6 4.4-4.5 5.7-4.8 2.7-.7 5.6-.6 8.3.4 2.4.9 6.3.2 8.3-.6 2-.8 3.6-1.2 4.7-.8 1.1.4 2.3.6 3.4.6 1.4-.1 2.7-.3 4-.7 0 0-2.5 2.1-4.1 2.1-2.5-.1-4.3 2.5-5 3.8-.7 1.3-2.1 2.1-5.1 2.2-4 .1-4.1 3.2-4.5 4.5-.4 1.3-1.7 2.1-4.5 1.7-2.8-.2-5.5-1.1-8-2.5-2.6-1.1-3.8-3.5-3.2-5.9M493.3 59c.6-1.9 2.9-1.4 4.3-1 .2 0 .4-.1.4-.3v-.2c-.5-.9-.6-2-.2-3 1-1.5 3.8.1 5.2.7 1.3.7 4.3 2.2 3.7 4-.3.9-1.1 1.4-2.1 1.5-.2 0-.3.2-.3.5 0 .1 0 .1.1.2.7.8 1.9 2.3 1.4 3.6-.5 1.2-2.4 1.1-3.6 1-.2 0-.4.2-.4.4 0 .1 0 .2.1.3.7.8 1.6 2.1 1.2 3.5-.6 2.1-3.7.6-5.4-.2-1.7-.7-3.7-2.1-3.4-3.6.2-1 1.4-1.6 2.3-1.9.2-.1.3-.3.2-.5 0-.1-.1-.1-.1-.2-1.4-1.1-3.9-3-3.4-4.8m4.2 43.1c-.6 0-.5-4.5-.3-11.4.2-7.4.7-16 .8-17.8.8.3 1.5.6 2.3.8.6.1 1.2.2 1.7.2h.3c-.4 2-.7 4.6-1.2 7.8-.3 2.3-.9 5.8-1.4 9.3-.6 5.6-1.7 11.1-2.2 11.1m34-5.7c-1.1-1.5-2-3.1-2.6-4.9-.2-.6-.5-1.5-.7-2.4 0-.2-.3-.4-.5-.3-.1 0-.1.1-.2.1-1 .9-1.8 2-2.4 3.2 0 .1-.1.1-.1.2-.8 1.4-1.3 2.9-1.7 4.4-1.5-1.2-2.8-2.6-4-4 0-.2.1-.4.1-.7.1-.4.1-.8.2-1.2.2-.9.4-1.7.7-2.5.1-.2 0-.4-.1-.5-.2-.2-.5-.2-.7 0-.6.7-1.2 1.4-1.7 2.2l-.3.6c-.7-1-1.5-1.9-2.2-3 0-.2 0-.4.1-.5 0-.4.1-.8.2-1.2.1-.8.4-1.6.6-2.4.1-.2 0-.4-.1-.5-.2-.2-.4-.2-.6 0-.6.6-1.1 1.3-1.6 2.1l-.1.2c-4-5.9-7.5-12-8.4-13.7l.2-.5c.2-.7.2-1.5-.1-2.2 0-.1-.1-.2-.1-.2.2 0 .5-.1.7-.1.6-.2 1.2-.6 1.5-1.1.4-.5.6-1.1.8-1.7.2-.6.2-1.3 0-2-.1-.5-.4-1-.7-1.5.6-.4 1-.9 1.3-1.5.1-.2.2-.3.2-.5s.1-.3.2-.5c.5.4 1 1 1.3 1.6 1 2.1-.2 5.6-.3 6.9-.1 1.6.4 3.1 1.4 4.4.9 1.2 8.8 5.8 16.2 8.9l1.1.5c1.7-5.8 6.2-10.6 9.5-14.2.8-.8 1.5-1.6 2.1-2.3l.8-.9-1-1c-1-1.2-2.4-1.9-4-2-1.6.2-3.2.6-4.8 1.2-1.5-1.7.8-3.7 1.9-4.7 1.3 0 3.1-.1 3.9-.2l1.2-.1c.4 0 .6-.3.6-.7 0-.1 0-.3-.1-.4-.4-.8-.9-1.6-1.4-2.3-.8-.9-2.6-.1-5.6-.5-4.3-.5-6-7.7-6-7.7 1.8.1 3.6-.3 5.1-1.2 1.8-1.2 2.7-3.8 4.9-5.4 2.2-1.5 7.2-2 10.9-2.3 3.5-.2 4.3-2.6 5.2-4.3.1-.2.3-.3.5-.2 4.4 2.8 3.7 6.7 2.6 8.3-.3.4-.6.8-1 1.2-.1.1-.1.3 0 .4.8.4 1.4 1.2 1.5 2.1.6 1.9.5 3.9-.3 5.7-.9 1.6-2.5 2.7-4.2 3.2-.2.1-.6.2-1 .4-.6.3-.8 1-.6 1.6.2.4.5.6.9.7h1c3 .1 5.9-.7 8.5-2.2 2.2 4 3.8 8.4 4.8 12.9-.4-.4-.9-.8-1.4-1.2-1-.7-2.1-1.4-3.3-1.8-1.1-.5-2.3-.8-3.5-.9-.3 0-.7.2-.8.5-.2.4 0 .8.4 1 1 .4 2 .9 3 1.5s1.9 1.2 2.7 2c.8.7 1.5 1.5 2.2 2.4.3.4.6.9.9 1.4l.4.7v.1c.1 3.2-.5 6.4-1.6 9.4 0 .2-.1.3-.2.5l-.3-.9c-.5-1.5-1.3-2.9-2.2-4.1-.9-1.3-2.1-2.4-3.4-3.2-1.3-.8-2.7-1.4-4.1-1.7-.4-.1-.7.1-.8.5-.2.4 0 .8.4 1 1.2.5 2.4 1.2 3.4 2.1 1 .8 1.9 1.8 2.5 2.9.7 1.1 1.3 2.3 1.7 3.6.2.6.4 1.3.6 2 .1.3.2.7.2 1 0 .1.1.3.2.4-1.5 2.2-3.2 4.3-5 6.2l-.1-.8c-.1-.4-.1-.8-.2-1.3-.4-1.7-1-3.3-1.8-4.8s-1.9-2.9-3.2-4c-1.2-1.1-2.7-1.9-4.2-2.5-.3-.1-.7 0-.9.4-.2.4-.1.8.3 1 1.3.8 2.4 1.7 3.4 2.7 1 1.1 1.8 2.3 2.4 3.6.6 1.3 1 2.8 1.3 4.2.1.4.2.7.2 1.1.1.4.1.8.2 1.1 0 .4.1.8.1 1.1 0 .2.1.3.1.4-1.7 1.5-3.4 2.9-5.3 4.2-.1 0-.2-.1-.3-.2l-.9-.6c-.3-.2-.6-.4-.9-.7s-.6-.4-.8-.7c-1.1-.9-2.1-1.9-3-3.1-.9-1.2-1.5-2.4-2-3.8-.4-1.4-.7-2.9-.6-4.4 0-.4-.2-.7-.6-.8-.4-.1-.8.2-.9.6-.3 1.7-.3 3.5-.1 5.2.3 1.7.9 3.4 1.8 4.9.9 1.5 2 2.8 3.2 4 .3.3.6.6.9.8.3.3.6.5.8.7-2.1 1.2-4.3 2.2-6.6 2.9l-.3-.3c-.9-.7-1.7-1.4-2.4-2.1-2.2-1.4-3.8-3.1-5.1-5M605 116c-1 2.7-2.4 5.3-4.1 7.7-.4-.7-.9-1.3-1.4-1.9-1-1.1-2.2-1.9-3.5-2.6-.3-.1-.7-.1-.9.2-.2.3-.2.8.1 1 .5.4.9.9 1.3 1.3.4.5.8 1 1.1 1.5.3.5.6 1.1.8 1.6.2.5.3 1.1.3 1.6-.9 1.2-1.9 2.3-2.9 3.4-.1-.1-.1-.3-.2-.4-.4-.7-.8-1.3-1.4-1.9-.5-.6-1-1.1-1.6-1.5-.6-.5-1.2-.9-1.8-1.2-.3-.2-.6-.1-.8.2-.3.3-.2.8.1 1 .5.4.9.9 1.3 1.4.4.5.7 1 1 1.6.3.5.5 1.1.6 1.7.1.5.2 1.1.2 1.6v.2c-1.6 1.5-3.2 2.9-4.6 4v.2c2 5.4-1.4 10.5-3.1 5.6-.4-1.1-.8-.9-1.5-.4-.7.6-6.9 4.8-7.7 5.4l-.1.1c.7 4.1-3.3 7.8-6 7.5-2.2-.2-3.4-2.9-2.8-6.5.1-.3-.1-.5-.4-.6-.1 0-.3 0-.4.1-2.4 2-6.7 4.5-9.5.5-1.3-1.9 1.2-5 2.6-6.5.2-.2.2-.6 0-.8-.1-.1-.2-.1-.3-.1-2.2-.3-6.4-1.2-4.7-3.4 1.6-2 4.6-1.7 6.8-1.5 4.6.3 9 2.3 12.1 5.8h.2c2.4-1.4 4.6-3.1 6.5-4.9 2-2.3 5-4 5.2-14.8.1-5.1-4.4-9.2-7.1-13.2-2.7-4-4.1-7.3-2.3-13.8 0-.1.1-.1.1-.1.3 0 1.7-.1 6-.1h.1c3.4 3.9 7.6 7 12.3 9.1.1 0 .1.1.1.1-.1 1.2-.9 11.6 10.3 11.6m12.2-25.5c4.3 2.8 12.4 2.4 20.1.1.1 0 .1 0 .2.1 1.1 2.5 1.9 5 2.3 7.7-.7-.4-1.5-.8-2.3-1.1-.8-.3-1.6-.6-2.5-.8-.8-.2-1.7-.3-2.6-.3-.2 0-.4.1-.5.4-.1.3.1.5.3.6.8.2 1.5.5 2.2.9.7.3 1.4.7 2.1 1.2.7.5 1.3 1 1.9 1.5.6.5 1.2 1.1 1.7 1.5.1 1.5.2 3.1.1 4.6-.2-.1-.4-.2-.6-.4-.8-.4-1.6-.8-2.4-1.1-.8-.3-1.6-.6-2.5-.8-.8-.2-1.7-.3-2.6-.3-.2 0-.4.1-.5.3-.1.3.1.5.3.6 1.5.5 3 1.2 4.3 2.1.7.4 1.3.9 1.9 1.4.6.5 1.1 1 1.7 1.5-.4 3.6-1.2 7.1-2.4 10.5l-.4.9c4.9 2.6 6 9.3 2.3 10-1.1.2-2.1 0-3-.6-.2-.2-.5-.1-.6 0-.1.1-.1.1-.1.2-.4 1.9-1.7 5.7-4.4 5.7-2.2 0-2.9-1.7-2.9-3.4 0-.3-.2-.5-.5-.5-.2 0-.3.1-.4.2-1.4 1.7-2.7 2.3-3.8 1.5-1.3-.8-1.8-2.4-1.2-3.7 1.6-3.4 6.4-4.7 8.4-7.2 2.4-4.2-1.5-12.8-4.4-18.9-.3-.6-1-1-1.7-.8-6 1.7-12.3 1.9-18.4.7-11.7-2.3-18-6.6-21.9-11.6l-.1-.1c-.3-.3-.5-.7-.7-1-1-1.5-1.7-2.6-2.3-3.5-.1-.2-.3-.3-.5-.3-1.2-.2-.5 2.9-.4 3.9 0 .1 0 .1-.1.2-2.3.5-5.1.1-8.1.2 0 0-.1 0-.1.1-4.4 5.6-5.9 9.5-18.5 11.8-1.8.3-1.6 1.5-.9 2.1 1.2 1.2 1.9 2.7 2.1 4.3.1.9-.6 2.1-4.6 4.8-.1-.2-.2-.5-.3-.7-.4-.7-.8-1.4-1.3-2-.5-.6-1.1-1.1-1.7-1.5-.6-.4-1.2-.8-1.9-1.1-.3-.1-.7 0-.8.2-.2.3-.2.8.2 1h.1c.5.4.9.8 1.3 1.3s.7 1 1 1.5c.3.5.5 1.1.6 1.6.1.5.2.9.2 1.4-1.5 1-3.1 1.8-4.7 2.6-.1-.4-.2-.7-.4-1.1-.3-.7-.7-1.4-1.2-2.1-.5-.6-1-1.2-1.6-1.7-.6-.5-1.2-.9-1.8-1.3-.3-.1-.6-.1-.8.2-.2.3-.2.8.1 1h.1c.4.4.9.9 1.2 1.4.4.5.7 1 .9 1.6.2.5.4 1.1.5 1.7.1.5.1 1 0 1.5-5.8 2.1-9.4 1.1-11.2 0-.4-.3-.9-.6-1.3-.9-.5-.3-1.1-.1-1.4.4-.3.4-.3 1 0 1.4.3.4.6.8.8 1.3.3.5.5 1.1.5 1.8 0 2-1.8 2.6-3.9 2.6-2.1 0-3.8-.6-3.8-2.6v-1c0-.5-.3-.9-.8-.9h-.2c-.4.1-.8.4-1 .8l-.7 1.2c-.1.2-3.5 7.9-7.1 6.2-2.3-1.2-1.3-3.9 0-6 .2-.3.1-.7-.2-1-.2-.1-.4-.1-.6-.1-1.1.5-2.4.5-3.4 0-2.2-1.2-2.9-3.6-2.1-5.2.8-1.6 1.9-3 3.2-4.1.3-.3.3-.8 0-1.1-.8-.8-1.2-1.5-.8-2.4.5-1.1 1.7-1.6 3.9-1.2 2.5.4 3.8 3.2 4.6 6.2.2 1.1 1.3 1.7 2.3 1.5 8.5-2.1 14.7-8.1 19.8-12.3l.5.4 1.4 1.1.6-.2c12.6-3.5 24.3-16.1 27.2-23.6.9-2.4 1.5-4.9 1.7-7.4 17.6-.5 17.3-1 25.1-2.4 6.1-1.1 14.2 2.5 18.2 6.5 2.9 2.9 2.8 8.5 5.9 10.5m29.5-19.7c-.3 4.5-2.5 7.6-7.3 8.9-4.8 1.4-13.8 3.5-23.1 1.9-.6-.1-1.4-2.2-1.7-2.9 0-.1 0-.1.1-.2h.1c8.4 1.5 21 .1 24.8-2.4 5.1-3.2 3.4-12.2-3.3-14.8-9.9-3.8-31 1.3-45.4 1.5-5.3.1-10.9 0-17.2-5.5-4-3.9-4.3-10.4-1.6-15 2.7-4 7.7-5.5 12.1-5.2 11.8.9 15.2-6.9 25.2-9 9.7-2.1 14.1.8 15.4 1.8.1 0 .1.1 0 .2l-.1.1c-5.2-.7-10.5 0-15.4 2.1-2.7 1.3-5.3 2.9-7.5 4.8-.1.1-.1.2 0 .2h.1c5.1 1.3 5.6 2.4 11.2 2.8 13.3 1.1 16.4-4.7 23.2-3.2 3.3.6 6.3 2.4 8.3 5.2v.2h-.1c-20.4-4.9-18.4 4-29.3 4.8-6.6.5-16.3-5.2-19-4.8-.1 0-.1.1-.1.1-.1 1-1 8.9-7.4 7.1-.1 0-.1-.1-.1-.2 0 0 0-.1.1-.1 2.4-2.3 1.5-5.8-2-6.8-2.4-.6-4.9-.5-7.2.4-3.8 1.5-5.3 6.9-3 10.2 3.4 5 8.7 6.2 16.3 5.7 7.9-.5 13-1.1 24-2.6 3.2-.4 9.5-1.1 15.5-1.3-.4.6-.7 1.3-1 1.9-.1.2-.1.3 0 .5s.4.3.6.2c.6-.4 1.3-.8 1.9-1.2l.9-.6c.3-.2.6-.4.8-.7v-.1c1.2 0 2.4 0 3.5.1l-.1.2c-.5.7-1 1.5-1.3 2.4-.1.2-.1.4.1.5.1.2.4.3.6.1.6-.5 1.3-1 2-1.4l1-.7c.4-.2.7-.5.9-.8 1.5.1 3 .5 4.3 1.3l-4.3 3.6c-.5.5 4.9 4.4 4.5 10.7" class="st0"/></svg>