<svg width="24" height="25" viewBox="0 0 24 25" fill="none" xmlns="http://www.w3.org/2000/svg">
<mask id="mask0_1336_6431" style="mask-type:alpha" maskUnits="userSpaceOnUse" x="0" y="0" width="24" height="25">
<rect y="0.407227" width="24" height="24" fill="#D9D9D9"/>
</mask>
<g mask="url(#mask0_1336_6431)">
<path d="M2 22.4072V4.07398C2 3.62398 2.16525 3.23364 2.49575 2.90298C2.82642 2.57248 3.21675 2.40723 3.66675 2.40723H20.3333C20.7833 2.40723 21.1736 2.57248 21.5043 2.90298C21.8348 3.23364 22 3.62398 22 4.07398V16.7405C22 17.1905 21.8348 17.5808 21.5043 17.9115C21.1736 18.242 20.7833 18.4072 20.3333 18.4072H6L2 22.4072ZM7.76675 11.3572C8.05008 11.3572 8.28758 11.2614 8.47925 11.0697C8.67092 10.8781 8.76675 10.6406 8.76675 10.3572C8.76675 10.0739 8.67092 9.83639 8.47925 9.64473C8.28758 9.45306 8.05008 9.35723 7.76675 9.35723C7.48342 9.35723 7.24592 9.45306 7.05425 9.64473C6.86258 9.83639 6.76675 10.0739 6.76675 10.3572C6.76675 10.6406 6.86258 10.8781 7.05425 11.0697C7.24592 11.2614 7.48342 11.3572 7.76675 11.3572ZM12.05 11.3572C12.3333 11.3572 12.5708 11.2614 12.7625 11.0697C12.9542 10.8781 13.05 10.6406 13.05 10.3572C13.05 10.0739 12.9542 9.83639 12.7625 9.64473C12.5708 9.45306 12.3333 9.35723 12.05 9.35723C11.7667 9.35723 11.5292 9.45306 11.3375 9.64473C11.1458 9.83639 11.05 10.0739 11.05 10.3572C11.05 10.6406 11.1458 10.8781 11.3375 11.0697C11.5292 11.2614 11.7667 11.3572 12.05 11.3572ZM16.2168 11.3572C16.5001 11.3572 16.7376 11.2614 16.9293 11.0697C17.1209 10.8781 17.2168 10.6406 17.2168 10.3572C17.2168 10.0739 17.1209 9.83639 16.9293 9.64473C16.7376 9.45306 16.5001 9.35723 16.2168 9.35723C15.9334 9.35723 15.6959 9.45306 15.5043 9.64473C15.3126 9.83639 15.2168 10.0739 15.2168 10.3572C15.2168 10.6406 15.3126 10.8781 15.5043 11.0697C15.6959 11.2614 15.9334 11.3572 16.2168 11.3572Z" fill="white"/>
</g>
</svg>
