<svg width="40" height="40" viewBox="0 0 40 40" fill="none" xmlns="http://www.w3.org/2000/svg">
<mask id="mask0_90_33300" style="mask-type:alpha" maskUnits="userSpaceOnUse" x="0" y="0" width="40" height="40">
<rect width="40" height="40" fill="#D9D9D9"/>
</mask>
<g mask="url(#mask0_90_33300)">
<path d="M19.972 36.6112C17.9073 36.6112 15.9652 36.2199 14.1458 35.4374C12.3263 34.6549 10.743 33.5901 9.39576 32.2428C8.04853 30.8956 6.97909 29.3123 6.18742 27.4928C5.39576 25.6734 4.99992 23.7245 4.99992 21.6462C4.99992 19.5678 5.39576 17.621 6.18742 15.8058C6.97909 13.9908 8.04853 12.4051 9.39576 11.0487C10.743 9.692 12.3263 8.62256 14.1458 7.84034C15.9652 7.05784 17.9073 6.66659 19.972 6.66659C22.037 6.66659 23.9792 7.05784 25.7987 7.84034C27.6181 8.62256 29.206 9.692 30.5624 11.0487C31.9188 12.4051 32.9883 13.9908 33.7708 15.8058C34.5533 17.621 34.9445 19.5678 34.9445 21.6462C34.9445 23.7245 34.5533 25.6734 33.7708 27.4928C32.9883 29.3123 31.9188 30.8956 30.5624 32.2428C29.206 33.5901 27.6181 34.6549 25.7987 35.4374C23.9792 36.2199 22.037 36.6112 19.972 36.6112ZM24.8887 28.4999L26.8333 26.5553L21.4445 21.1666V13.3333H18.6666V22.2778L24.8887 28.4999ZM9.05534 3.88867L10.9999 5.83325L4.08326 12.5833L2.13867 10.6387L9.05534 3.88867ZM30.8887 3.88867L37.8053 10.6387L35.8612 12.5833L28.9445 5.83325L30.8887 3.88867ZM19.9733 33.8333C23.3708 33.8333 26.2523 32.6501 28.6178 30.2837C30.9837 27.917 32.1666 25.0349 32.1666 21.6374C32.1666 18.2402 30.9834 15.3587 28.617 12.9928C26.2503 10.6273 23.3683 9.4445 19.9708 9.4445C16.5735 9.4445 13.692 10.6277 11.3262 12.9941C8.96062 15.3608 7.77784 18.2427 7.77784 21.6399C7.77784 25.0374 8.96103 27.9189 11.3274 30.2845C13.6941 32.6503 16.576 33.8333 19.9733 33.8333Z" fill="#233870"/>
</g>
</svg>
