<svg width="117" height="40" viewBox="0 0 117 40" fill="none" xmlns="http://www.w3.org/2000/svg">
<path d="M115.141 18.2862C115.796 19.0135 114.784 20.1686 114.005 19.4223L113.914 19.3331C113.365 18.9434 112.549 18.802 111.819 18.802C110.098 18.802 109.334 19.4923 109.334 20.3635C109.334 21.3225 110.329 21.6766 111.233 21.9606C113.293 22.5847 116.135 22.9387 116.135 25.8146C116.135 28.3707 113.898 29.5437 111.66 29.5437C110.292 29.5437 108.659 29.1527 107.594 28.3707C106.742 27.7492 107.664 26.4348 108.534 27.0754C109.227 27.59 110.524 27.9466 111.66 27.9466C113.487 27.9466 114.537 27.0754 114.537 25.8146C114.537 24.7294 113.612 24.3232 112.635 24.0022C110.684 23.382 107.734 23.1323 107.734 20.3635C107.734 18.0914 109.849 17.2024 111.819 17.2024C112.708 17.2024 114.357 17.4507 115.141 18.2862Z" fill="#3555A6"/>
<path d="M106.368 28.1652C106.268 27.8824 106.023 27.6583 105.632 27.6583H99.5139V23.7572H103.914C104.962 23.7572 104.962 22.1652 103.894 22.1652H99.5139V19.0601H105.632C105.827 19.0601 105.981 19.0053 106.111 18.9111C106.645 18.5137 106.484 17.4579 105.632 17.4579H98.7166C98.2925 17.4579 97.9219 17.8387 97.9219 18.2552V28.4645C97.9219 28.8886 98.2925 29.2605 98.7166 29.2605H105.632C106.286 29.2605 106.53 28.6326 106.368 28.1652Z" fill="#3555A6"/>
<path d="M95.9538 18.2557C95.9538 17.2152 94.3579 17.2152 94.3579 18.2557V28.4841C94.3579 29.531 95.9538 29.531 95.9538 28.4841V18.2557Z" fill="#3555A6"/>
<path d="M85.3086 17.4576C84.2604 17.4576 84.2604 19.0598 85.3086 19.0598H87.9705V28.4642C87.9705 29.5035 89.5663 29.5035 89.5663 28.4642V19.0598H92.2307C93.2751 19.0598 93.2751 17.4576 92.2307 17.4576H85.3086Z" fill="#3555A6"/>
<path d="M83.5177 18.2557C83.5177 17.2152 81.9219 17.2152 81.9219 18.2557V28.4841C81.9219 29.531 83.5177 29.531 83.5177 28.4841V18.2557Z" fill="#3555A6"/>
<path d="M79.5066 18.2862C78.7233 17.4507 77.074 17.2024 76.185 17.2024C74.2147 17.2024 72.103 18.0914 72.103 20.3635C72.103 23.1323 75.0502 23.382 77.0026 24.0022C77.9782 24.3232 78.9029 24.7294 78.9029 25.8146C78.9029 27.0754 77.856 27.9466 76.0258 27.9466C74.8884 27.9466 73.5932 27.59 72.9003 27.0754C72.0292 26.4348 71.1071 27.7492 71.9604 28.3707C73.0251 29.1527 74.6579 29.5437 76.0258 29.5437C78.2622 29.5437 80.5 28.3707 80.5 25.8146C80.5 22.9387 77.6598 22.5847 75.5991 21.9606C74.6949 21.6766 73.7002 21.3225 73.7002 20.3635C73.7002 19.4923 74.4631 18.802 76.185 18.802C76.9135 18.802 77.7312 18.9434 78.2826 19.3331L78.3705 19.4223C79.1512 20.1686 80.1625 19.0135 79.5066 18.2862Z" fill="#3555A6"/>
<path d="M52.8251 17.4577C52.3985 17.4577 52.0215 17.8385 52.0215 18.2562V28.4642C52.0215 28.8884 52.3985 29.2603 52.8251 29.2603H59.7396C60.2656 29.2603 60.5254 28.8629 60.5254 28.4642C60.5254 28.058 60.2656 27.658 59.7396 27.658H53.6237V23.7582H58.024C59.0709 23.7582 59.0709 22.1637 58.0024 22.1637H53.6237V19.0599H59.7396C60.2656 19.0599 60.5254 18.6625 60.5254 18.2562C60.5254 17.8576 60.2656 17.4577 59.7396 17.4577H52.8251Z" fill="#3555A6"/>
<path d="M56.6514 3.33816C56.6514 2.2887 55.0556 2.2887 55.0556 3.33816V10.948L49.6083 2.88985C49.1485 2.23649 48.1411 2.53961 48.1411 3.33816V13.536C48.1411 14.5829 49.737 14.5829 49.737 13.536V5.92615L55.1778 13.9754C55.6427 14.6377 56.6514 14.3333 56.6514 13.536V3.33816Z" fill="#3555A6"/>
<path d="M56.5789 36.9435L54.6633 32.3623C54.5283 32.0197 54.1068 32.1152 54.0036 32.3623L52.0881 36.9435C51.9034 37.3905 52.5721 37.6605 52.7504 37.2326L53.1618 36.2519H55.5052L55.9166 37.2326C56.0057 37.4465 56.2312 37.486 56.3865 37.4147C56.5457 37.3497 56.6757 37.1689 56.5789 36.9435ZM55.2059 35.5336H53.4611L54.3348 33.4448L55.2059 35.5336Z" fill="#3555A6"/>
<path d="M51.1971 32.5018C51.1971 32.0357 50.4775 32.0357 50.4775 32.5018V37.1059C50.4775 37.5708 51.1971 37.5708 51.1971 37.1059V32.5018Z" fill="#3555A6"/>
<path d="M46.7031 25.9744L44.0056 18.0131C43.6668 16.9993 42.1602 17.4985 42.4977 18.5072L45.9594 28.7076C46.209 29.4565 47.2164 29.4565 47.466 28.7076L50.9265 18.5072C51.1914 17.7291 49.8439 16.7497 49.4185 18.0131L46.7031 25.9744Z" fill="#3555A6"/>
<path d="M47.2523 36.7297V32.5039C47.2523 32.0339 46.5264 32.0339 46.5264 32.5039V37.0889C46.5264 37.2787 46.6958 37.4468 46.8881 37.4468H49.2481C49.7231 37.4468 49.7231 36.7297 49.2481 36.7297H47.2523Z" fill="#3555A6"/>
<path d="M39.1457 2.53982C38.7191 2.53982 38.3472 2.91172 38.3472 3.33838V13.5349C38.3472 13.9616 38.7191 14.3335 39.1457 14.3335H46.0665C46.5875 14.3335 46.8447 13.9361 46.8447 13.5349C46.8447 13.1388 46.5875 12.7402 46.0665 12.7402H39.943V8.83912H44.3433C45.3903 8.83912 45.3903 7.23819 44.3281 7.23819H39.943V4.13311H46.0665C46.5875 4.13311 46.8447 3.73574 46.8447 3.33838C46.8447 2.93846 46.5875 2.53982 46.0665 2.53982H39.1457Z" fill="#3555A6"/>
<path d="M45.848 36.9435L43.9325 32.3623C43.795 32.0197 43.3759 32.1152 43.2715 32.3623L41.356 36.9435C41.17 37.3905 41.8412 37.6605 42.0183 37.2326L42.4309 36.2519H44.7718L45.1857 37.2326C45.2736 37.4465 45.5003 37.486 45.6532 37.4147C45.8149 37.3497 45.9448 37.1689 45.848 36.9435ZM44.4751 35.5336H42.7277L43.6001 33.4448L44.4751 35.5336Z" fill="#3555A6"/>
<path d="M40.8683 18.2557C40.8683 17.2152 39.2725 17.2152 39.2725 18.2557V28.4841C39.2725 29.531 40.8683 29.531 40.8683 28.4841V18.2557Z" fill="#3555A6"/>
<path d="M37.2857 18.2552C37.2857 17.2146 35.6924 17.2146 35.6924 18.2552V25.8676L30.2439 17.8158C29.7828 17.1624 28.769 17.4566 28.769 18.2552V28.4632C28.769 29.5025 30.3649 29.5025 30.3649 28.4632V20.8533L35.8121 28.9013C36.2732 29.5598 37.2857 29.2592 37.2857 28.4632V18.2552Z" fill="#3555A6"/>
<path d="M37.1236 6.03373C37.1236 4.10038 35.5621 2.5402 33.6084 2.5402H29.4042C28.9788 2.5402 28.6069 2.9121 28.6069 3.33876V13.5366C28.6069 14.5835 30.2028 14.5835 30.2028 13.5366V9.54126H33.6275C35.5621 9.54126 37.1236 7.98745 37.1236 6.03373ZM35.5214 6.06175C35.4335 7.07427 34.7228 7.9467 33.6084 7.9467H30.2028V4.13477H33.6275C34.7458 4.13477 35.4399 5.02757 35.5214 6.02736V6.06175Z" fill="#3555A6"/>
<path d="M32.6937 32.1458C32.2186 32.1458 32.2186 32.8654 32.6937 32.8654H33.9049V37.0887C33.9049 37.5574 34.6309 37.5574 34.6309 37.0887V32.8654H35.8421C36.3197 32.8654 36.3197 32.1458 35.8421 32.1458H32.6937Z" fill="#3555A6"/>
<path d="M31.4943 32.563C31.1453 32.1886 30.4079 32.0778 30.0118 32.0778C29.1318 32.0778 28.1893 32.4764 28.1893 33.4902C28.1893 34.7256 29.5049 34.8364 30.3774 35.1141C30.8129 35.2567 31.223 35.4401 31.223 35.9203C31.223 36.4845 30.7582 36.8742 29.9392 36.8742C29.4336 36.8742 28.8554 36.715 28.5459 36.4845C28.1587 36.2018 27.7448 36.7864 28.1256 37.064C28.6019 37.4117 29.3304 37.5862 29.9392 37.5862C30.939 37.5862 31.9375 37.064 31.9375 35.9203C31.9375 34.6378 30.6703 34.4811 29.7507 34.2035C29.3457 34.0761 28.9025 33.9169 28.9025 33.4902C28.9025 33.1005 29.2426 32.7923 30.0118 32.7923C30.3353 32.7923 30.7021 32.856 30.9454 33.0292L30.9874 33.0699C31.3351 33.4024 31.7872 32.8865 31.4943 32.563Z" fill="#3555A6"/>
<path d="M27.3458 32.504C27.3458 32.034 26.6186 32.034 26.6186 32.504V35.66C26.6186 36.3236 26.0786 36.8572 25.4074 36.8572C24.7375 36.8572 24.1949 36.3236 24.1949 35.66V32.504C24.1949 32.034 23.4702 32.034 23.4702 32.504V35.66C23.4702 36.7209 24.3401 37.573 25.4074 37.573C26.4823 37.573 27.3458 36.7133 27.3458 35.66V32.504Z" fill="#3555A6"/>
<path d="M27.0875 18.2557C27.0875 17.2151 25.4916 17.2151 25.4916 18.2557V25.286C25.4916 26.7596 24.3033 27.9415 22.8285 27.9415C21.3536 27.9415 20.1641 26.7596 20.1641 25.286V18.2557C20.1641 17.2151 18.5708 17.2151 18.5708 18.2557V25.286C18.5708 27.6447 20.4901 29.5437 22.8285 29.5437C25.1885 29.5437 27.0875 27.6244 27.0875 25.286V18.2557Z" fill="#3555A6"/>
<path d="M27.0881 10.5697V6.28015C27.0881 4.14557 25.4974 2.41346 22.8445 2.41346C20.1902 2.41346 18.6021 4.14557 18.6021 6.28015V10.5697C18.6021 12.9195 20.515 14.4338 22.8445 14.4338C25.1968 14.4338 27.0881 12.8991 27.0881 10.5697ZM25.4923 10.5697C25.4375 11.8611 24.5282 12.8444 22.8445 12.8444C21.3773 12.8444 20.2501 12.0764 20.1902 10.5697C20.1342 9.06555 20.1457 7.5716 20.1992 6.28015C20.2539 4.98616 21.1607 4.00293 22.8445 4.00293C24.3142 4.00293 25.4414 4.77474 25.4974 6.27888C25.5573 7.78429 25.5458 9.2757 25.4923 10.5697Z" fill="#3555A6"/>
<path d="M22.9866 36.9435L21.071 32.3623C20.9335 32.0197 20.5145 32.1152 20.41 32.3623L18.4945 36.9435C18.3073 37.3905 18.9798 37.6605 19.1568 37.2326L19.5694 36.2519H21.9104L22.3243 37.2326C22.4122 37.4465 22.6363 37.486 22.7917 37.4147C22.9534 37.3497 23.0834 37.1689 22.9866 36.9435ZM21.6123 35.5336H19.8687L20.7412 33.4448L21.6123 35.5336Z" fill="#3555A6"/>
<path d="M6.90348 20.6341V33.057C6.90348 33.3703 6.64749 33.6263 6.32908 33.6263C6.01323 33.6263 5.7585 33.3703 5.7585 33.057V20.6341H0.000488281V33.057C0.000488281 36.553 2.82664 39.3843 6.32908 39.3843C9.82898 39.3843 12.6589 36.553 12.6589 33.057V20.6341H6.90348Z" fill="#3555A6"/>
<path d="M12.6597 19.3657V6.94288C12.6597 3.44681 9.83486 0.615561 6.33241 0.615561C2.83379 0.615561 0 3.44681 0 6.94288V19.3657H5.76056V6.94288C5.76056 6.63085 6.01528 6.37357 6.33241 6.37357C6.64827 6.37357 6.90427 6.63085 6.90427 6.94288V19.3657H12.6597Z" fill="#3555A6"/>
<path d="M70.474 20.9528C70.474 19.0207 68.9125 17.458 66.9601 17.458H62.7546C62.3292 17.458 61.9561 17.8375 61.9561 18.2553V28.4646C61.9561 29.5026 63.5519 29.5026 63.5519 28.4646V24.4693H65.81L69.0348 28.9435C69.6551 29.7879 70.9325 28.8492 70.311 27.9832L67.723 24.4018C69.3035 24.0426 70.474 22.6225 70.474 20.9528ZM68.8731 20.9808C68.7839 22.001 68.0758 22.8721 66.9601 22.8721H63.5519V19.0589H66.9805C68.0949 19.0589 68.7903 19.9454 68.8731 20.9464V20.9808Z" fill="#3555A6"/>
<path d="M40.6939 33.7169C40.6939 32.8483 39.9819 32.1453 39.0955 32.1453H37.18C36.9851 32.1453 36.8145 32.3134 36.8145 32.5044V37.0882C36.8145 37.5581 37.543 37.5581 37.543 37.0882V35.2936H38.5695L40.0392 37.3021C40.322 37.6855 40.9066 37.2652 40.6213 36.8717L39.4432 35.2631C40.1615 35.1026 40.6939 34.4645 40.6939 33.7169ZM39.9628 33.7284C39.9259 34.1856 39.6024 34.5766 39.0955 34.5766H37.543V32.8649H39.1044C39.6113 32.8649 39.9259 33.2622 39.9628 33.7131V33.7284Z" fill="#3555A6"/>
</svg>
