<svg xmlns="http://www.w3.org/2000/svg" id="QUT_TAGLINE" data-name="QUT TAGLINE" viewBox="0 0 323.15 123.02"><defs><style>.cls-1{fill:#fff}.cls-2{fill:#14265e}</style></defs><path d="M24.53 25.65H95.4v70.87H24.53z" class="cls-2"/><path d="M37.72 46.42l11.34 12.15c.14.15.28.2.48.19h7.39l-5.19-5.25c-.17-.17-.19-.28-.06-.5 1.77-3.04 2.39-6.26 1.56-9.72-1.46-6.05-6.96-10.34-13.37-10-1.83.1-3.56.54-5.19 1.37-4.99 2.52-7.95 8.03-6.89 13.78.69 3.73 2.61 6.69 5.78 8.77 3.53 2.32 7.35 2.56 11.31 1.33.55-.17 1.09-.43 1.59-.7l.05-.03c-1.55-1.67-4.8-5.13-4.8-5.13-.06-.07-.21-.1-.3-.08-.66.15-1.31.12-1.97.02-3.93-.58-6.46-4.28-5.57-8.14.75-3.28 3.87-5.51 7.15-5.12 3.36.4 6.33 3.26 6.02 7.24-.05.58-.15 1.14-.38 1.61-.54-.51-1.09-1.01-1.62-1.53a.766.766 0 00-.6-.25h-6.74z" class="cls-1"/><path d="M54.81 33.42v18.23c0 .39.05.79.15 1.16.76 2.69 2.49 4.52 5.08 5.51 2.63 1 5.34 1.04 8.06.36 1.98-.49 3.62-1.52 4.79-3.22.86-1.25 1.33-2.61 1.32-4.16-.03-3.22-.01-6.44 0-9.66a.65.65 0 00-.2-.51c-1.94-2.02-3.87-4.05-5.8-6.07-.1-.1-.2-.2-.36-.37v16.37c0 .2 0 .41-.05.6-.19.73-.74 1.1-1.41 1.28a6.56 6.56 0 01-3.7-.04c-1.03-.31-1.43-.9-1.43-1.97V33.4h-6.42z" class="cls-1"/><path d="M78.84 39.67v19.02h6.61V39.67h6.9v-6.25H68.49l5.79 6.05c.1.11.29.19.44.19h4.12z" class="cls-1"/><path d="M109.96 72.64c-2.47 0-3.76-1.36-3.76-4.01V62.7h-2.45v-2.93h2.52l1.26-3.33h2.35v3.33h3.66v2.93h-3.66v5.35c0 .98.38 1.39 1.26 1.39h2.52v3.21h-3.71zm5.7 0V54.97h3.68v6.69h.13c.83-1.26 2.27-2.2 4.06-2.2 2.57 0 4.27 1.89 4.27 4.9v8.28h-3.69v-7.37c0-1.64-.76-2.6-2.04-2.6-1.59 0-2.73 1.34-2.73 3.05v6.92h-3.68zm26.3-5.56h-9.21c.28 1.79 1.39 2.8 3.13 2.8 1.16 0 2.07-.45 2.6-1.31l3.21.43c-.83 2.5-2.98 3.94-5.8 3.94-3.94 0-6.66-2.78-6.66-6.74s2.73-6.74 6.51-6.74 6.36 2.55 6.36 6.44c0 .4-.05.81-.13 1.19zm-9.16-2.27h5.85c-.33-1.56-1.41-2.47-2.93-2.47s-2.55.88-2.93 2.47zm15.24 3.23v-8.28h3.69v7.37c0 1.67.73 2.6 1.99 2.6 1.51 0 2.65-1.34 2.65-3.05v-6.92h3.68v12.87h-3.33v-2.2h-.13c-1.06 1.59-2.52 2.5-4.32 2.5-2.6 0-4.24-1.87-4.24-4.9zm14.23 4.6V59.77h3.41v2.12h.13c1.03-1.49 2.47-2.42 4.32-2.42 2.62 0 4.29 1.89 4.29 4.9v8.28h-3.68v-7.37c0-1.64-.76-2.6-2.04-2.6-1.59 0-2.73 1.34-2.73 3.05v6.92h-3.68zm14.36-14.74v-3.08h3.63v3.08h-3.63zm0 14.74V59.77h3.63v12.87h-3.63zm9.31 0l-4.27-12.87h3.81l2.9 9.64h.13l2.93-9.64h3.66l-4.24 12.87h-4.92zm21.81-5.56h-9.21c.28 1.79 1.39 2.8 3.13 2.8 1.16 0 2.07-.45 2.6-1.31l3.21.43c-.83 2.5-2.98 3.94-5.8 3.94-3.94 0-6.66-2.78-6.66-6.74s2.73-6.74 6.51-6.74 6.36 2.55 6.36 6.44c0 .4-.05.81-.13 1.19zm-9.16-2.27h5.85c-.33-1.56-1.41-2.47-2.93-2.47s-2.55.88-2.93 2.47zm10.82 7.83V59.77h3.33v2.2h.13c.96-1.46 2.12-2.2 3.79-2.2h1.16v3.38h-1.46c-2.04 0-3.26 1.21-3.26 3.36v6.13h-3.68zm9.09-3.87l3.43-.45c.48 1.26 1.62 1.67 2.85 1.67 1.16 0 1.92-.38 1.92-1.19 0-2.27-7.57-.45-7.57-5.48 0-2.32 2.2-3.86 5.43-3.86s5.12 1.51 5.68 3.91l-3.15.43c-.35-1.08-1.34-1.54-2.6-1.54-1.03 0-1.74.33-1.74 1.06 0 2.32 7.67.4 7.67 5.53 0 2.55-2.17 4.09-5.63 4.09s-5.65-1.62-6.28-4.16zm13.43-10.87v-3.08h3.63v3.08h-3.63zm0 14.74V59.77h3.63v12.87h-3.63zm11.35 0c-2.47 0-3.76-1.36-3.76-4.01V62.7h-2.45v-2.93h2.52l1.26-3.33h2.35v3.33h3.66v2.93h-3.66v5.35c0 .98.38 1.39 1.26 1.39h2.52v3.21h-3.71zm13.93-12.88h3.66l-5.55 14.59c-.88 2.32-1.79 3.33-3.96 3.33h-2.12v-2.95h1.51c.71 0 1.14-.28 1.41-1.19l.35-1.09-5.07-12.69h3.79l3.05 7.92h.13l2.8-7.92zm-146.2 21.43c-.86 0-1.26.43-1.26 1.39v1.06h3.61v2.93h-3.46v9.94h-3.68v-9.94h-2.45v-2.93h2.45V82.5c0-2.52 1.31-3.91 3.68-3.91h3.58v2.6h-2.47zm2.78 8.88c0-3.94 2.7-6.74 6.59-6.74s6.64 2.8 6.64 6.74-2.73 6.74-6.64 6.74-6.59-2.78-6.59-6.74zm9.51 0c0-2.22-1.14-3.61-2.93-3.61s-2.88 1.39-2.88 3.61 1.11 3.61 2.88 3.61 2.93-1.39 2.93-3.61zm5.23 6.44V83.64h3.33v2.2h.13c.96-1.46 2.12-2.2 3.79-2.2h1.16v3.38h-1.46c-2.04 0-3.26 1.21-3.26 3.36v6.13h-3.68zm19.83 0c-2.47 0-3.76-1.36-3.76-4.01v-5.93h-2.45v-2.93h2.52l1.26-3.33h2.35v3.33h3.66v2.93h-3.66v5.35c0 .98.38 1.39 1.26 1.39h2.52v3.21h-3.71zm5.71 0V78.84h3.68v6.69h.13c.83-1.26 2.27-2.2 4.06-2.2 2.57 0 4.27 1.89 4.27 4.9v8.28h-3.69v-7.37c0-1.64-.76-2.6-2.04-2.6-1.59 0-2.73 1.34-2.73 3.05v6.92h-3.68zm26.3-5.56h-9.21c.28 1.79 1.39 2.8 3.13 2.8 1.16 0 2.07-.45 2.6-1.31l3.21.43c-.83 2.5-2.98 3.94-5.8 3.94-3.94 0-6.66-2.78-6.66-6.74s2.73-6.74 6.51-6.74 6.36 2.55 6.36 6.44c0 .4-.05.81-.13 1.19zm-9.17-2.27h5.85c-.33-1.56-1.41-2.47-2.93-2.47s-2.55.88-2.93 2.47zm15.37 7.83V83.64h3.33v2.2h.13c.96-1.46 2.12-2.2 3.79-2.2h1.16v3.38h-1.46c-2.04 0-3.26 1.21-3.26 3.36v6.13h-3.68zm21.71-5.56h-9.21c.28 1.79 1.39 2.8 3.13 2.8 1.16 0 2.07-.45 2.6-1.31l3.21.43c-.83 2.5-2.98 3.94-5.8 3.94-3.94 0-6.66-2.78-6.66-6.74s2.73-6.74 6.51-6.74 6.36 2.55 6.36 6.44c0 .4-.05.81-.13 1.19zm-9.16-2.27h5.85c-.33-1.56-1.41-2.47-2.93-2.47s-2.55.88-2.93 2.47zm22.08-.25v8.08h-2.98v-2.4h-.13c-.93 1.74-2.47 2.7-4.47 2.7-2.47 0-4.37-1.51-4.37-3.86 0-2.5 2.12-4.19 5.12-4.19h3.28v-.25c0-1.46-.81-2.3-2.3-2.3-1.21 0-2.12.53-2.57 1.67l-3.16-.43c.66-2.52 2.65-4.11 5.83-4.11 3.63 0 5.73 2.02 5.73 5.1zm-3.53 2.68v-.15h-2.73c-1.16 0-2.07.5-2.07 1.49 0 .91.76 1.41 1.82 1.41 1.67 0 2.98-1.14 2.98-2.75zm5.24 5.4V78.84h3.68v17.67h-3.68zm12.5 0l-3.18-12.87h3.61l2.12 9.49h.13l2.37-9.49h3.94l2.37 9.49h.13l2.12-9.49h3.51l-3.21 12.87h-4.69l-2.15-8.48h-.13l-2.15 8.48h-4.79zm17.11-6.44c0-3.94 2.7-6.74 6.59-6.74s6.64 2.8 6.64 6.74-2.73 6.74-6.64 6.74-6.59-2.78-6.59-6.74zm9.51 0c0-2.22-1.14-3.61-2.93-3.61s-2.88 1.39-2.88 3.61 1.11 3.61 2.88 3.61 2.93-1.39 2.93-3.61zm5.23 6.44V83.64h3.33v2.2h.13c.96-1.46 2.12-2.2 3.79-2.2h1.16v3.38h-1.46c-2.04 0-3.26 1.21-3.26 3.36v6.13h-3.68zm10.01 0V78.84h3.68v17.67h-3.68zm5.35-6.44c0-4.09 2.35-6.74 5.45-6.74 1.77 0 3.38.86 4.09 2.2h.13v-6.69H296v17.67h-3.33v-2.2h-.13c-.93 1.51-2.4 2.5-4.39 2.5-3.18 0-5.53-2.62-5.53-6.74zm9.67 0c0-2.17-1.31-3.61-3.08-3.61s-2.88 1.39-2.88 3.61 1.14 3.61 2.88 3.61 3.08-1.44 3.08-3.61z" class="cls-2"/></svg>